<svg width="89" height="34" viewBox="0 0 89 34" fill="none" xmlns="http://www.w3.org/2000/svg">
<path d="M7.81648 0.877812C7.81648 0.877812 8.96478 1.28188 8.80727 3.02303C8.80727 3.02303 8.57672 3.34593 8.47606 3.78585C8.38932 4.16154 8.44628 4.63751 8.25659 4.92062C8.25659 4.92062 7.96746 5.34416 7.71973 5.65563C7.4532 5.98874 7.21493 6.19676 6.81186 5.78249C6.81186 5.78249 7.03632 7.42787 7.97017 7.44697C7.97017 7.44697 9.25729 7.24296 9.74655 9.19739L9.58176 10.278C9.58176 10.278 10.0269 11.4811 9.4348 12.0515C9.4348 12.0515 6.76881 13.2736 9.32251 16.9852C9.32251 16.9852 9.61773 18.6557 9.53089 19.3841C9.53089 19.3841 8.4716 24.7278 7.75505 25.0516C7.75505 25.0516 7.54048 25.3906 4.69264 25.0415C4.69264 25.0415 1.10336 17.566 4.2548 15.2146C4.2548 15.2146 4.79721 12.7593 3.50401 11.5586L2.39266 14.1184C2.60114 14.6279 4.51797 16.4413 3.50564 17.3851C3.50564 17.3851 0.695954 15.4042 0.987812 13.5099L2.37994 8.45507C2.37994 8.45507 2.37994 7.28696 4.71645 7.35868C4.71645 7.35868 5.31853 6.71176 5.1919 5.76854C5.1919 5.76854 3.55705 6.1404 3.08552 5.36897C3.08552 5.36897 3.97012 5.07828 3.67488 3.33637C3.67488 3.33637 3.66651 2.28427 3.88554 1.88292C4.44013 0.870317 5.41474 0.441537 6.89925 0.602191L7.81648 0.877812Z" fill="#1D1D1D"/>
<path d="M4.88931 14.4551C5.04112 14.3312 5.0477 13.6776 5.04441 13.4398C5.04441 13.4398 4.99466 12.9065 4.76527 12.5504L4.54733 12.2464L4.39144 12.0434L5.20151 11.547C5.88754 11.1137 4.71744 9.08398 4.71744 9.08398L4.9762 9.09132L5.63608 10.4697C6.82416 10.4139 7.58601 11.2549 7.58601 11.2549L7.84437 11.2624L8.32186 10.5209C8.46797 9.60635 7.90398 9.0872 7.90398 9.0872L8.16235 9.12497C8.5978 9.31914 8.65123 10.6208 8.65123 10.6208C8.81893 11.0189 9.31111 11.6085 9.31111 11.6085C9.36254 12.1233 8.77857 12.5256 8.77857 12.5256C8.51411 12.8196 8.28639 13.3991 8.26232 13.4145C8.07088 14.498 8.31985 14.3875 8.40515 14.8869C8.52021 15.0464 8.75811 15.7127 8.71615 15.9781C8.71615 15.9781 7.79221 18.2747 7.0233 18.0712C7.0233 18.0712 6.53803 15.6488 4.60936 15.2675L4.17432 15.6728C4.20457 15.2159 4.88931 14.4551 4.88931 14.4551Z" fill="white"/>
<path d="M22.912 20V9.696H28.128C29.1627 9.696 29.9307 9.94133 30.432 10.432C30.944 10.912 31.2 11.5947 31.2 12.48C31.2 13.0347 31.0933 13.4987 30.88 13.872C30.6667 14.2347 30.3787 14.5173 30.016 14.72C30.496 14.8693 30.8747 15.12 31.152 15.472C31.44 15.8133 31.584 16.32 31.584 16.992C31.584 17.984 31.3013 18.736 30.736 19.248C30.1813 19.7493 29.376 20 28.32 20H22.912ZM25.072 13.968H27.728C28.2507 13.968 28.624 13.856 28.848 13.632C29.072 13.3973 29.184 13.072 29.184 12.656C29.184 12.1973 29.0667 11.856 28.832 11.632C28.608 11.408 28.1867 11.296 27.568 11.296H25.072V13.968ZM25.072 18.416H27.808C28.352 18.416 28.752 18.304 29.008 18.08C29.264 17.856 29.392 17.4613 29.392 16.896C29.392 16.4373 29.264 16.096 29.008 15.872C28.7627 15.648 28.3147 15.536 27.664 15.536H25.072V18.416ZM33.0839 20V12.416H35.0839L35.1799 13.2C35.5212 12.9867 35.9425 12.7947 36.4439 12.624C36.9559 12.4427 37.4572 12.32 37.9479 12.256V13.888C37.6599 13.9307 37.3452 13.9947 37.0039 14.08C36.6625 14.1653 36.3372 14.2613 36.0279 14.368C35.7185 14.4747 35.4572 14.5867 35.2439 14.704V20H33.0839ZM40.9523 20.16C40.4723 20.16 40.0243 20.0747 39.6083 19.904C39.2029 19.7227 38.8723 19.4613 38.6163 19.12C38.3709 18.768 38.2483 18.3307 38.2483 17.808C38.2483 17.0613 38.5096 16.464 39.0323 16.016C39.5656 15.568 40.3496 15.344 41.3843 15.344H43.6243V15.136C43.6243 14.6667 43.4909 14.336 43.2243 14.144C42.9683 13.952 42.4456 13.856 41.6562 13.856C40.7923 13.856 39.9603 13.9893 39.1603 14.256V12.736C39.5123 12.5973 39.9389 12.4853 40.4403 12.4C40.9523 12.304 41.5069 12.256 42.1043 12.256C43.2456 12.256 44.1256 12.4907 44.7443 12.96C45.3736 13.4187 45.6883 14.16 45.6883 15.184V20H43.8163L43.7043 19.312C43.4056 19.5787 43.0376 19.7867 42.6003 19.936C42.1629 20.0853 41.6136 20.16 40.9523 20.16ZM41.5443 18.736C42.0243 18.736 42.4403 18.656 42.7923 18.496C43.1443 18.336 43.4216 18.1333 43.6243 17.888V16.688H41.4323C40.5896 16.688 40.1683 17.0347 40.1683 17.728C40.1683 18.4 40.6269 18.736 41.5443 18.736ZM50.4356 20.16C49.561 20.16 48.9103 19.9307 48.4836 19.472C48.0676 19.0133 47.8596 18.3893 47.8596 17.6V14.08H46.7876V12.416H47.8596V10.784L50.0196 10.144V12.416H51.9396L51.8116 14.08H50.0196V17.456C50.0196 17.872 50.1156 18.16 50.3076 18.32C50.4996 18.4693 50.7983 18.544 51.2036 18.544C51.5023 18.544 51.8116 18.4907 52.1316 18.384V19.872C51.897 19.968 51.641 20.0373 51.3636 20.08C51.0863 20.1333 50.777 20.16 50.4356 20.16ZM54.5054 22.816C54.1747 22.816 53.8814 22.7947 53.6254 22.752C53.3694 22.72 53.1187 22.656 52.8734 22.56V21.04C53.0547 21.104 53.22 21.1467 53.3694 21.168C53.5294 21.1893 53.6894 21.2 53.8494 21.2C54.2867 21.2 54.6227 21.0987 54.8574 20.896C55.1027 20.6933 55.348 20.352 55.5934 19.872L52.2014 12.416H54.4574L56.6814 17.568L58.8894 12.416H61.1294L58.1374 19.472C57.86 20.1333 57.556 20.7147 57.2254 21.216C56.9054 21.728 56.5267 22.1227 56.0894 22.4C55.652 22.6773 55.124 22.816 54.5054 22.816Z" fill="#1D1D1D"/>
</svg>
