<svg width="214" height="44" viewBox="0 0 214 44" fill="none" xmlns="http://www.w3.org/2000/svg">
<path d="M30.4393 30.295C30.6116 25.6422 39.2704 10.1776 44.3105 10.0052C49.3506 9.83287 54.0029 11.4267 54.0029 11.4267C54.0029 11.4267 47.7137 13.6238 46.6799 20.3009C45.6458 26.978 40.9504 24.0484 40.8642 25.4272C40.7781 26.8056 43.2768 27.0211 43.2337 28.3995C43.1906 29.7779 41.9542 29.5836 42.1266 30.4023C42.2989 31.2206 42.6412 30.8986 42.6951 31.8142C42.7489 32.7295 41.0462 32.3848 42.0272 34.1286C43.0087 35.8729 41.8122 38.0489 41.8122 38.0489C41.8122 38.0489 30.2669 34.9473 30.4393 30.295ZM12.7951 34.1286C13.7765 32.3848 12.0733 32.7295 12.1272 31.8142C12.1811 30.8986 12.5238 31.2206 12.6961 30.4023C12.8681 29.5836 11.6321 29.7779 11.589 28.3995C11.5459 27.0211 14.0442 26.8056 13.958 25.4272C13.8719 24.0484 9.17645 26.978 8.14273 20.3009C7.10862 13.6238 0.819336 11.4267 0.819336 11.4267C0.819336 11.4267 5.47166 9.83287 10.5118 10.0052C15.5519 10.1776 24.2106 25.6422 24.383 30.295C24.5553 34.9473 13.0105 38.0489 13.0105 38.0489C13.0105 38.0489 11.8136 35.8729 12.7951 34.1286Z" fill="#808080"/>
<path d="M29.009 22.3862C30.8012 9.56186 43.6814 5.08148 45.8094 4.91352C47.9375 4.74555 49.0016 4.91352 49.0016 4.91352C49.0016 4.91352 43.0095 10.5696 43.2337 15.3297C43.4575 20.0901 37.8014 23.394 37.1854 25.4099C36.5694 27.4263 38.5722 27.3824 38.8487 28.9384C39.1252 30.4939 38.265 30.5446 38.291 31.633C38.3169 32.7214 38.8595 32.5845 38.9524 33.2923C39.0454 34 38.0476 34.0463 38.024 34.5686C38.0009 35.0904 38.6392 35.8796 38.7901 36.4481C38.9409 37.0166 38.8487 41.8577 38.8487 41.8577C38.8487 41.8577 27.2173 35.2105 29.009 22.3862ZM16.0327 36.4481C16.1835 35.8796 16.8215 35.0904 16.7983 34.5686C16.7752 34.0463 15.7774 34 15.8703 33.2923C15.9629 32.5845 16.5055 32.7214 16.5314 31.633C16.5573 30.5446 15.6972 30.4939 15.9737 28.9384C16.2501 27.3824 18.2529 27.4263 17.6373 25.4099C17.0213 23.394 11.3648 20.0901 11.589 15.3297C11.8129 10.5696 5.8208 4.91352 5.8208 4.91352C5.8208 4.91352 6.88484 4.74555 9.01292 4.91352C11.141 5.08148 24.0212 9.56186 25.8133 22.3862C27.6055 35.2105 15.9737 41.8577 15.9737 41.8577C15.9737 41.8577 15.8819 37.0166 16.0327 36.4481Z" fill="black"/>
<circle cx="27.3439" cy="5.38201" r="4.39959" fill="black"/>
<path d="M71.9109 33.8711L64.9169 25.7851V33.8711H61.9529V15.8011H64.9169V24.0431L71.9369 15.8011H75.6549L67.8029 24.8491L75.7849 33.8711H71.9109ZM84.6201 34.1051C83.2681 34.1051 82.0461 33.8018 80.9541 33.1951C79.8621 32.5711 79.0041 31.7044 78.3801 30.5951C77.7561 29.4684 77.4441 28.1684 77.4441 26.6951C77.4441 25.2391 77.7647 23.9478 78.4061 22.8211C79.0474 21.6944 79.9227 20.8278 81.0321 20.2211C82.1414 19.6144 83.3807 19.3111 84.7501 19.3111C86.1194 19.3111 87.3587 19.6144 88.4681 20.2211C89.5774 20.8278 90.4527 21.6944 91.0941 22.8211C91.7354 23.9478 92.0561 25.2391 92.0561 26.6951C92.0561 28.1511 91.7267 29.4424 91.0681 30.5691C90.4094 31.6958 89.5081 32.5711 88.3641 33.1951C87.2374 33.8018 85.9894 34.1051 84.6201 34.1051ZM84.6201 31.5311C85.3827 31.5311 86.0934 31.3491 86.7521 30.9851C87.4281 30.6211 87.9741 30.0751 88.3901 29.3471C88.8061 28.6191 89.0141 27.7351 89.0141 26.6951C89.0141 25.6551 88.8147 24.7798 88.4161 24.0691C88.0174 23.3411 87.4887 22.7951 86.8301 22.4311C86.1714 22.0671 85.4607 21.8851 84.6981 21.8851C83.9354 21.8851 83.2247 22.0671 82.5661 22.4311C81.9247 22.7951 81.4134 23.3411 81.0321 24.0691C80.6507 24.7798 80.4601 25.6551 80.4601 26.6951C80.4601 28.2378 80.8501 29.4338 81.6301 30.2831C82.4274 31.1151 83.4241 31.5311 84.6201 31.5311ZM100.186 34.1051C99.0595 34.1051 98.0455 33.9058 97.1441 33.5071C96.2601 33.0911 95.5581 32.5364 95.0381 31.8431C94.5181 31.1324 94.2408 30.3438 94.2061 29.4771H97.2741C97.3261 30.0838 97.6121 30.5951 98.1321 31.0111C98.6695 31.4098 99.3368 31.6091 100.134 31.6091C100.966 31.6091 101.607 31.4531 102.058 31.1411C102.526 30.8118 102.76 30.3958 102.76 29.8931C102.76 29.3558 102.5 28.9571 101.98 28.6971C101.477 28.4371 100.671 28.1511 99.5621 27.8391C98.4875 27.5444 97.6121 27.2584 96.9361 26.9811C96.2601 26.7038 95.6708 26.2791 95.1681 25.7071C94.6828 25.1351 94.4401 24.3811 94.4401 23.4451C94.4401 22.6824 94.6655 21.9891 95.1161 21.3651C95.5668 20.7238 96.2081 20.2211 97.0401 19.8571C97.8895 19.4931 98.8601 19.3111 99.9521 19.3111C101.581 19.3111 102.89 19.7271 103.878 20.5591C104.883 21.3738 105.421 22.4918 105.49 23.9131H102.526C102.474 23.2718 102.214 22.7604 101.746 22.3791C101.278 21.9978 100.645 21.8071 99.8481 21.8071C99.0681 21.8071 98.4701 21.9544 98.0541 22.2491C97.6381 22.5438 97.4301 22.9338 97.4301 23.4191C97.4301 23.8004 97.5688 24.1211 97.8461 24.3811C98.1235 24.6411 98.4615 24.8491 98.8601 25.0051C99.2588 25.1438 99.8481 25.3258 100.628 25.5511C101.668 25.8284 102.517 26.1144 103.176 26.4091C103.852 26.6864 104.433 27.1024 104.918 27.6571C105.403 28.2118 105.655 28.9484 105.672 29.8671C105.672 30.6818 105.447 31.4098 104.996 32.0511C104.545 32.6924 103.904 33.1951 103.072 33.5591C102.257 33.9231 101.295 34.1051 100.186 34.1051ZM115.089 34.1051C113.737 34.1051 112.515 33.8018 111.423 33.1951C110.331 32.5711 109.473 31.7044 108.849 30.5951C108.225 29.4684 107.913 28.1684 107.913 26.6951C107.913 25.2391 108.233 23.9478 108.875 22.8211C109.516 21.6944 110.391 20.8278 111.501 20.2211C112.61 19.6144 113.849 19.3111 115.219 19.3111C116.588 19.3111 117.827 19.6144 118.937 20.2211C120.046 20.8278 120.921 21.6944 121.563 22.8211C122.204 23.9478 122.525 25.2391 122.525 26.6951C122.525 28.1511 122.195 29.4424 121.537 30.5691C120.878 31.6958 119.977 32.5711 118.833 33.1951C117.706 33.8018 116.458 34.1051 115.089 34.1051ZM115.089 31.5311C115.851 31.5311 116.562 31.3491 117.221 30.9851C117.897 30.6211 118.443 30.0751 118.859 29.3471C119.275 28.6191 119.483 27.7351 119.483 26.6951C119.483 25.6551 119.283 24.7798 118.885 24.0691C118.486 23.3411 117.957 22.7951 117.299 22.4311C116.64 22.0671 115.929 21.8851 115.167 21.8851C114.404 21.8851 113.693 22.0671 113.035 22.4311C112.393 22.7951 111.882 23.3411 111.501 24.0691C111.119 24.7798 110.929 25.6551 110.929 26.6951C110.929 28.2378 111.319 29.4338 112.099 30.2831C112.896 31.1151 113.893 31.5311 115.089 31.5311ZM130.993 31.2191L135.049 19.5451H138.195L132.735 33.8711H129.199L123.765 19.5451H126.937L130.993 31.2191ZM139.447 26.6431C139.447 25.2044 139.742 23.9304 140.331 22.8211C140.938 21.7118 141.753 20.8538 142.775 20.2471C143.815 19.6231 144.959 19.3111 146.207 19.3111C147.334 19.3111 148.313 19.5364 149.145 19.9871C149.995 20.4204 150.671 20.9664 151.173 21.6251V19.5451H154.163V33.8711H151.173V31.7391C150.671 32.4151 149.986 32.9784 149.119 33.4291C148.253 33.8798 147.265 34.1051 146.155 34.1051C144.925 34.1051 143.798 33.7931 142.775 33.1691C141.753 32.5278 140.938 31.6438 140.331 30.5171C139.742 29.3731 139.447 28.0818 139.447 26.6431ZM151.173 26.6951C151.173 25.7071 150.965 24.8491 150.549 24.1211C150.151 23.3931 149.622 22.8384 148.963 22.4571C148.305 22.0758 147.594 21.8851 146.831 21.8851C146.069 21.8851 145.358 22.0758 144.699 22.4571C144.041 22.8211 143.503 23.3671 143.087 24.0951C142.689 24.8058 142.489 25.6551 142.489 26.6431C142.489 27.6311 142.689 28.4978 143.087 29.2431C143.503 29.9884 144.041 30.5604 144.699 30.9591C145.375 31.3404 146.086 31.5311 146.831 31.5311C147.594 31.5311 148.305 31.3404 148.963 30.9591C149.622 30.5778 150.151 30.0231 150.549 29.2951C150.965 28.5498 151.173 27.6831 151.173 26.6951ZM171.134 21.0011C170.666 20.0998 170.016 19.4238 169.184 18.9731C168.352 18.5051 167.39 18.2711 166.298 18.2711C165.102 18.2711 164.036 18.5398 163.1 19.0771C162.164 19.6144 161.428 20.3771 160.89 21.3651C160.37 22.3531 160.11 23.4971 160.11 24.7971C160.11 26.0971 160.37 27.2498 160.89 28.2551C161.428 29.2431 162.164 30.0058 163.1 30.5431C164.036 31.0804 165.102 31.3491 166.298 31.3491C167.91 31.3491 169.219 30.8984 170.224 29.9971C171.23 29.0958 171.845 27.8738 172.07 26.3311H165.284V23.9651H175.242V26.2791C175.052 27.6831 174.549 28.9744 173.734 30.1531C172.937 31.3318 171.888 32.2764 170.588 32.9871C169.306 33.6804 167.876 34.0271 166.298 34.0271C164.6 34.0271 163.048 33.6371 161.644 32.8571C160.24 32.0598 159.122 30.9591 158.29 29.5551C157.476 28.1511 157.068 26.5651 157.068 24.7971C157.068 23.0291 157.476 21.4431 158.29 20.0391C159.122 18.6351 160.24 17.5431 161.644 16.7631C163.066 15.9658 164.617 15.5671 166.298 15.5671C168.222 15.5671 169.93 16.0438 171.42 16.9971C172.928 17.9331 174.02 19.2678 174.696 21.0011H171.134ZM179.674 17.6471C179.136 17.6471 178.686 17.4651 178.322 17.1011C177.958 16.7371 177.776 16.2864 177.776 15.7491C177.776 15.2118 177.958 14.7611 178.322 14.3971C178.686 14.0331 179.136 13.8511 179.674 13.8511C180.194 13.8511 180.636 14.0331 181 14.3971C181.364 14.7611 181.546 15.2118 181.546 15.7491C181.546 16.2864 181.364 16.7371 181 17.1011C180.636 17.4651 180.194 17.6471 179.674 17.6471ZM181.13 19.5451V33.8711H178.166V19.5451H181.13ZM187.985 21.6251C188.419 20.8971 188.991 20.3338 189.701 19.9351C190.429 19.5191 191.287 19.3111 192.275 19.3111V22.3791H191.521C190.36 22.3791 189.476 22.6738 188.869 23.2631C188.28 23.8524 187.985 24.8751 187.985 26.3311V33.8711H185.021V19.5451H187.985V21.6251ZM197.964 14.6311V33.8711H195V14.6311H197.964ZM207.055 34.1051C205.929 34.1051 204.915 33.9058 204.013 33.5071C203.129 33.0911 202.427 32.5364 201.907 31.8431C201.387 31.1324 201.11 30.3438 201.075 29.4771H204.143C204.195 30.0838 204.481 30.5951 205.001 31.0111C205.539 31.4098 206.206 31.6091 207.003 31.6091C207.835 31.6091 208.477 31.4531 208.927 31.1411C209.395 30.8118 209.629 30.3958 209.629 29.8931C209.629 29.3558 209.369 28.9571 208.849 28.6971C208.347 28.4371 207.541 28.1511 206.431 27.8391C205.357 27.5444 204.481 27.2584 203.805 26.9811C203.129 26.7038 202.54 26.2791 202.037 25.7071C201.552 25.1351 201.309 24.3811 201.309 23.4451C201.309 22.6824 201.535 21.9891 201.985 21.3651C202.436 20.7238 203.077 20.2211 203.909 19.8571C204.759 19.4931 205.729 19.3111 206.821 19.3111C208.451 19.3111 209.759 19.7271 210.747 20.5591C211.753 21.3738 212.29 22.4918 212.359 23.9131H209.395C209.343 23.2718 209.083 22.7604 208.615 22.3791C208.147 21.9978 207.515 21.8071 206.717 21.8071C205.937 21.8071 205.339 21.9544 204.923 22.2491C204.507 22.5438 204.299 22.9338 204.299 23.4191C204.299 23.8004 204.438 24.1211 204.715 24.3811C204.993 24.6411 205.331 24.8491 205.729 25.0051C206.128 25.1438 206.717 25.3258 207.497 25.5511C208.537 25.8284 209.387 26.1144 210.045 26.4091C210.721 26.6864 211.302 27.1024 211.787 27.6571C212.273 28.2118 212.524 28.9484 212.541 29.8671C212.541 30.6818 212.316 31.4098 211.865 32.0511C211.415 32.6924 210.773 33.1951 209.941 33.5591C209.127 33.9231 208.165 34.1051 207.055 34.1051Z" fill="#1D1D1D"/>
</svg>
