<svg xmlns="http://www.w3.org/2000/svg" width="653.725" height="653.68" viewBox="0 0 653.725 653.68">
  <path id="Become_a_model_at_modelkos_now_-" data-name="Become a model at modelkos now -" d="M302.278,478.059c-5.312,2.447-9.065,6.934-7.652,13.128,1.814,7.923,10.789,9.127,21.114,6.764l11.913-2.724-11.116-48.62-16.322,3.736c-10.591,2.492-18.316,6.725-15.784,17.813C286.668,477.934,293.461,479.426,302.278,478.059ZM289.805,466.93c-2.838-12.4,4.888-14.745,11.082-16.164l10.331-2.362,8.647,37.808a19.967,19.967,0,0,0-4.188-6.29c-2.724-2.713-6.177-3.878-9.415-3.137C300.272,478.16,292.625,479.256,289.805,466.93Zm10.2,23.03c-1.719-7.5,1.774-11.569,6.385-12.62,3.1-.712,6.183.4,8.817,3.051a21.389,21.389,0,0,1,5.86,11.054l1.04,4.544-6.47,1.48C309.02,498.986,301.8,497.81,300,489.961Zm-27.84-1.492c-2.368-8.252-10.822-7.5-15.095-12l.215,5.578c9.67-.373,14.688,1.419,15.061,11.089l.435,11.433-5.787.226c-8.613.328-12.3.119-17.492-4.493l.215,5.646,28.518-1.091-1.91-49.841-28.094,1.079L247,466.6c2.266-7.228,5.832-10.122,11.975-10.359l11.931-.458Zm-52.847,13.507c-15.869,1.966-20.82-15.921-20.82-15.921l-1.1,7.268s5.764,11.077,21.984,9.161A25.245,25.245,0,0,0,241.5,474.662c-1.78-13.841-13.84-23.867-27.766-22.036a24.29,24.29,0,0,0-13.779,6.143l-1.333,8.873c2.113-7.4,7.132-13.71,15.2-14.643,12.36-1.43,20.758,11.122,22.086,22.25C236.963,486.27,231.752,500.484,219.313,501.976Zm-58.567-14.638a25.186,25.186,0,0,0,28.422-21.295c1.932-13.92-7.483-26.608-21.165-28.366a24.868,24.868,0,0,0-28.264,21.284C137.66,472.667,147.126,485.609,160.747,487.338Zm.158-.549c-12.513-1.639-17.209-15.852-15.61-26.992,1.673-10.964,10.308-23.482,22.64-21.611,12.23,1.757,16.966,16.056,15.383,26.981C181.747,476.244,173.168,488.638,160.905,486.79ZM82.5,440.136c11.868,9.139,28.252-4.719,39.233-16.773l-9.964,39.323,4.645,3.577,30.44-39.511-.334-.254L116.856,465l1.277-4.9,11.71-46.45-.559-.429c-7.85,10.183-26.681,32.773-41.494,28.851L117.2,403.9l-4.25-3.279ZM80.981,414.3c4.974-7-.887-13.14-.039-19.289l-4.222,3.651c6.324,7.324,8.059,12.359.735,18.684l-8.664,7.482L65,420.447c-5.629-6.522-7.766-9.534-7.409-16.475l-4.273,3.7,18.65,21.6,37.753-32.592L91.346,375.392,82.371,381c7.065-2.741,11.552-1.763,15.564,2.894l7.8,9.037Zm-18.6-92.052-2.408-5.42-37,39.556.2.452a224.146,224.146,0,0,0,35.593,1.114,50.344,50.344,0,0,0,11.817-1.933c3.046-.967,4.668-2.538,4.668-4.623a1.744,1.744,0,0,0-.006-1.232c-1.159-2.967-4.035-3-7.81-2.792-5.629.028-13.4.463-19.306-10.049ZM47.767,337.714c6.058,10.681,13.988,10.252,19.775,10.229,3.425-.283,6.143-.254,7.1,2.413a4.2,4.2,0,0,0,.079,1.045c.175,1.78-1.628,3.12-4.329,4.166A50.358,50.358,0,0,1,58.7,357.443c-8.692.616-19.424.124-28.795-.424ZM0,254.619c1.35,14.914,22.651,17.531,38.956,17.4l-35.628,19.4.526,5.838,49.672-4.487-.034-.424L5.081,296.718l4.47-2.391,42.042-22.951-.062-.7c-12.807,1.153-42.177,2.673-49.355-10.863l47.982-4.334-.48-5.347Zm3.843-35.967a25.191,25.191,0,0,0,27.478,22.5C45.3,239.7,55.362,227.519,53.8,213.809a24.871,24.871,0,0,0-27.433-22.347C12.563,192.729,2.266,205.015,3.843,218.653Zm.57.023c-1.4-12.541,11.27-20.5,22.477-21.617,11.037-1,25.262,4.392,26.4,16.813,1.221,12.292-11.529,20.311-22.51,21.391C19.645,236.387,5.555,231.024,4.413,218.675Zm61.449-42.743a24.938,24.938,0,0,0-45.714-19.938l-6.437,14.767L59.426,190.7Zm-49.5-10.025,4.233-9.715c4.324-9.907,17.9-13.467,30.264-8.071s18.8,17.678,14.485,27.586l-4.239,9.715Zm38.176-40.29c8.008,3.1,12.518-4.091,18.684-4.781l-4.572-3.2c-5.544,7.935-10,10.856-17.932,5.313l-9.382-6.555,3.318-4.748c4.939-7.065,7.336-9.873,14.146-11.235L54.17,97.173,37.82,120.565,78.7,149.139l16.1-23.047-7.635-7.318c4.391,6.171,4.544,10.761,1.022,15.8l-6.838,9.789Zm58-33.3c3.233,6.878,2.657,11.376-1.622,15.694l-8.4,8.483L67.48,81.8l-3.974,4.013,35.435,35.1,19.837-20.029Zm57.007-24.511,5.216-2.826L132.427,31.2l-.435.238A224.43,224.43,0,0,0,133.675,67a50.426,50.426,0,0,0,2.849,11.637c1.2,2.961,2.9,4.453,4.978,4.289a1.755,1.755,0,0,0,1.233-.1c2.859-1.39,2.667-4.261,2.164-8.008-.469-5.612-1.514-13.321,8.506-20.035Zm-16.559-13.36c-10.173,6.878-9.121,14.745-8.647,20.515.554,3.4.735,6.11-1.847,7.267a4.365,4.365,0,0,0-1.04.159c-1.758.31-3.239-1.379-4.493-3.991a50.387,50.387,0,0,1-2.781-11.506c-1.3-8.619-1.65-19.357-1.836-28.738Zm30.631,8.11,5.132-1.808-16.4-46.575c7.087-2.424,11.5-3.527,17.5-.921l-1.831-5.2L151.172,21.03,153,26.223c2.922-5.742,7.11-7.669,14.214-10.246ZM271.076,0C256.1.243,251.917,21.3,250.843,37.566L234.131.6l-5.86.1.807,49.869.424-.006-.791-48.6,2.057,4.628,19.78,43.63.707-.011c-.209-12.858.446-42.263,14.479-48.423l.78,48.173,5.369-.084Zm35.707,6.589A25.193,25.193,0,0,0,282.249,32.27c.379,14.044,11.75,25.014,25.54,24.5a24.871,24.871,0,0,0,24.38-25.64c-.2-13.863-11.665-25.065-25.387-24.54Zm-.062.571c12.6-.441,19.577,12.807,19.831,24.059.147,11.089-6.312,24.855-18.78,25.036-12.354.282-19.374-13.05-19.611-24.081C287.89,20.99,294.315,7.353,306.72,7.16Zm37.9,64.541a24.939,24.939,0,0,0,23.374-44.06L353.763,20.1,330.395,64.156ZM358.4,23.115l9.364,4.962c9.546,5.069,12.06,18.876,5.736,30.8S354.436,76.267,344.885,71.2l-9.358-4.967Zm37.249,41.132C391.951,72,398.784,77.036,399,83.236l3.538-4.318c-7.488-6.126-10.066-10.788-3.933-18.283l7.245-8.856,4.482,3.667c6.669,5.46,9.292,8.059,10.127,14.955l3.583-4.374L401.954,47.954,370.368,86.547l21.758,17.808L400,97.3c-6.488,3.911-11.077,3.713-15.83-.181l-9.24-7.555ZM424.459,124.6c-7.1,2.7-11.546,1.78-15.525-2.808l-7.821-9.02,37.248-32.31-3.707-4.267-37.673,32.682,18.47,21.29Zm27.4,11.925c7.855,13.982-23.584,13.411-10.987,35.831l.491-.276c-2.419-4.312,1.051-9.1,5.121-14.547,4.877-6.466,10.709-12.666,5.866-21.284a7.974,7.974,0,0,0-4.894-3.816c7.2-.158,14.134,1.216,22.312,2.939.107.187,7.669,2.255,10.953,6.081l-5.742-10.223c-.543,4.521-11.376,2.26-11.376,2.26-11.428-2.17-20.861-2.95-33.085,1.978l35.6-20.006-2.628-4.68-43.483,24.432,2.628,4.679c8.07-4.532,14.807-6.533,21.323-7.194C445.5,132.557,449.709,132.7,451.858,136.524Zm39.684,33.4a25.192,25.192,0,0,0-34.7-7.573c-11.795,7.641-15.23,23.059-7.612,34.565a24.872,24.872,0,0,0,34.587,7.46C495.538,196.979,499.138,181.358,491.542,169.919Zm-.52.243c6.94,10.534-.74,23.38-10.212,29.462-9.388,5.9-24.506,7.556-31.158-3-6.668-10.4,1.057-23.329,10.348-29.28C469.411,161.289,484.4,159.673,491.022,170.162Zm1.192,48.694c-8.031.644-11.444,8.364-14.214,16.175-6.211,17.017-13.36,18.87-17.61,14.536-8.178-8.274-3.329-24.54,13.574-32.853l-9.788.792c-9.563,8.782-11.078,25.137-4.3,32.665a10.906,10.906,0,0,0,9.133,3.373c8.307-.672,11.727-8.319,14.417-16.259,6.64-17.831,14.339-19.023,18.374-13.818,5.029,6.109,5.013,19.011-8.85,27.291l7.392-.6c9.3-6.844,7.573-32.575-8.127-31.3Zm11.913,71.17-48.705-10.744-1.142,5.177,48.219,10.63c-1.639,7.455-8.443,11.739-17.22,14.146-11.134,2.9-25.494,2.408-36.458-.011l-1.142,5.172,48.705,10.743,1.136-5.177-39.595-8.732c9.128.927,19.148.751,27.568-1.661,8.885-2.233,15.831-6.85,17.492-14.372Zm-21.4,67.869a25.191,25.191,0,0,0-19.775-29.5c-13.8-2.668-26.958,6.069-29.439,19.644a24.868,24.868,0,0,0,19.769,29.343C466.867,380.174,480.285,371.408,482.732,357.9Zm-.543-.181c-2.294,12.4-16.734,16.345-27.777,14.163-10.857-2.25-22.906-11.535-20.386-23.748,2.391-12.122,16.927-16.095,27.75-13.942C472.757,336.34,484.681,345.558,482.189,357.714ZM398.716,395.1l17.576,35.423c2.425,5.087,7.432,7.822,12.592,5.092,5.454-2.854,6.771-9.461,3.329-16.073l-4.72-9.771,19.092,6.313,3.882-4.493-26.381-8.681-8.341-16.723,44.234,14.389,4.012-4.651-51.61-16.656-.412.48,11.495,22.9-24.426-7.924Zm27.913,14.485,5.261,10.332c2.656,5.464,2.492,12.139-3.233,15.315-4.967,2.617-9.737-.288-12.139-4.973L402.4,401.638Zm-46.145,33.893-1.764-2.9-16.785,10.189,1.764,2.9Z" transform="matrix(-0.934, 0.358, -0.358, -0.934, 653.725, 472.338)" fill="gray" fill-rule="evenodd" opacity="0.5"/>
</svg>
