<svg xmlns="http://www.w3.org/2000/svg" width="329.391" height="329.408" viewBox="0 0 329.391 329.408"><g id="Group_13177" data-name="Group 13177" transform="translate(-789.423 -8620.262)"><path id="Become_a_model_at_modelkos_now_-" data-name="Become a model at modelkos now -" d="M147.167,232.747c-2.586,1.191-4.413,3.376-3.726,6.391.883,3.858,5.253,4.444,10.279,3.293l5.8-1.326-5.412-23.671-7.947,1.819c-5.156,1.213-8.917,3.274-7.685,8.673C139.567,232.686,142.874,233.413,147.167,232.747Zm-6.073-5.418c-1.381-6.037,2.38-7.179,5.4-7.869l5.03-1.15,4.21,18.407a9.721,9.721,0,0,0-2.039-3.062,4.953,4.953,0,0,0-4.584-1.527C146.19,232.8,142.467,233.33,141.094,227.329Zm4.964,11.212c-.837-3.654.864-5.632,3.109-6.144a4.529,4.529,0,0,1,4.293,1.486,10.413,10.413,0,0,1,2.853,5.382l.506,2.213-3.15.721C150.449,242.936,146.933,242.363,146.058,238.542Zm-13.554-.726c-1.153-4.017-5.269-3.652-7.349-5.844l.1,2.716c4.708-.182,7.151.691,7.333,5.4l.212,5.566-2.818.11c-4.193.16-5.988.058-8.516-2.187l.1,2.749,13.884-.531-.93-24.266-13.678.525-.6,5.118c1.1-3.519,2.839-4.928,5.83-5.043l5.809-.223Zm-25.729,6.576c-7.726.957-10.136-7.751-10.136-7.751l-.534,3.538s2.806,5.393,10.7,4.46a12.291,12.291,0,0,0,10.766-13.545,12.1,12.1,0,0,0-13.518-10.728,11.826,11.826,0,0,0-6.708,2.991l-.649,4.32c1.029-3.6,3.472-6.675,7.4-7.129,6.017-.7,10.106,5.415,10.753,10.833C115.368,236.745,112.831,243.665,106.775,244.391Zm-28.514-7.126A12.262,12.262,0,0,0,92.1,226.9a12.155,12.155,0,1,0-13.837,10.368Zm.077-.267c-6.092-.8-8.378-7.718-7.6-13.141.815-5.338,5.019-11.432,11.022-10.522,5.954.856,8.26,7.817,7.49,13.136C88.485,231.864,84.308,237.9,78.338,237ZM40.166,214.284c5.778,4.449,13.755-2.3,19.1-8.166l-4.851,19.145L56.678,227,71.5,207.768l-.163-.124L56.893,226.388,57.515,224l5.7-22.615-.272-.209c-3.822,4.958-12.99,15.956-20.2,14.046l14.316-18.581-2.069-1.6Zm-.74-12.577c2.422-3.406-.432-6.4-.019-9.391l-2.055,1.778c3.079,3.566,3.924,6.017.358,9.1l-4.218,3.643L31.648,204.7c-2.74-3.175-3.781-4.642-3.607-8.021l-2.08,1.8,9.08,10.516,18.38-15.868-8.948-10.362-4.37,2.729c3.439-1.334,5.624-.859,7.578,1.409l3.8,4.4Zm-9.055-44.817L29.2,154.252,11.185,173.51l.1.22a109.126,109.126,0,0,0,17.329.542,24.511,24.511,0,0,0,5.753-.941c1.483-.471,2.273-1.235,2.273-2.251a.849.849,0,0,0,0-.6c-.564-1.444-1.964-1.461-3.8-1.359-2.741.014-6.524.225-9.4-4.892Zm-7.115,7.528c2.95,5.2,6.81,4.991,9.627,4.98,1.667-.138,2.991-.124,3.456,1.175a2.044,2.044,0,0,0,.039.509c.085.867-.792,1.519-2.108,2.028a24.518,24.518,0,0,1-5.693.913,116.69,116.69,0,0,1-14.019-.207ZM0,123.964c.657,7.261,11.028,8.535,18.966,8.472L1.62,141.878l.256,2.842,24.183-2.185-.017-.206L2.474,144.46,4.65,143.3l20.469-11.174-.03-.341c-6.235.561-20.534,1.3-24.029-5.289l23.36-2.11-.234-2.6Zm1.871-17.511a12.264,12.264,0,0,0,13.378,10.954,12.156,12.156,0,1,0-2.413-24.191A12.052,12.052,0,0,0,1.871,106.453Zm.278.011c-.682-6.105,5.487-9.982,10.943-10.525,5.374-.487,12.3,2.138,12.852,8.186.594,5.984-5.613,9.889-10.959,10.414C9.564,115.087,2.7,112.476,2.149,106.464Zm29.917-20.81A12.141,12.141,0,0,0,9.809,75.947l-3.134,7.19,22.257,9.707Zm-24.1-4.881,2.061-4.73c2.1-4.823,8.714-6.557,14.734-3.929s9.154,8.607,7.052,13.43l-2.064,4.73ZM26.555,61.158c3.9,1.508,6.095-1.992,9.1-2.328l-2.226-1.558c-2.7,3.863-4.867,5.286-8.73,2.587l-4.568-3.192,1.615-2.312c2.4-3.439,3.571-4.807,6.887-5.47l-2.256-1.577L18.413,58.7l19.9,13.912,7.839-11.221-3.717-3.563c2.138,3,2.212,5.239.5,7.69l-3.329,4.766ZM54.79,44.946c1.574,3.349,1.293,5.538-.79,7.641l-4.089,4.13L32.853,39.825l-1.935,1.954L48.17,58.866l9.658-9.751ZM82.545,33.013l2.54-1.376L64.473,15.188l-.212.116a109.266,109.266,0,0,0,.82,17.315,24.551,24.551,0,0,0,1.387,5.665c.586,1.442,1.411,2.168,2.424,2.088a.854.854,0,0,0,.6-.049c1.392-.677,1.3-2.075,1.054-3.9-.228-2.732-.737-6.485,4.141-9.754Zm-8.062-6.5c-4.953,3.349-4.441,7.179-4.21,9.988.27,1.654.358,2.975-.9,3.538a2.125,2.125,0,0,0-.506.077c-.856.151-1.577-.671-2.187-1.943a24.531,24.531,0,0,1-1.354-5.6,116.046,116.046,0,0,1-.894-13.991ZM89.4,30.456l2.5-.88L83.91,6.9c3.45-1.18,5.6-1.717,8.521-.448l-.891-2.531L73.6,10.238l.891,2.528c1.422-2.8,3.462-3.734,6.92-4.988ZM131.976,0c-7.291.118-9.328,10.368-9.851,18.289l-8.136-18-2.853.047.393,24.279.207,0L111.35.955l1,2.253,9.63,21.242.344-.005c-.1-6.26.217-20.576,7.049-23.575l.38,23.454,2.614-.041ZM149.36,3.208a12.265,12.265,0,0,0-11.945,12.5,12.155,12.155,0,1,0,24.3-.556,12.05,12.05,0,0,0-12.36-11.947Zm-.03.278c6.136-.215,9.531,6.235,9.655,11.713.072,5.4-3.073,12.1-9.143,12.189-6.015.137-9.432-6.353-9.548-11.724C140.161,10.219,143.29,3.58,149.329,3.486Zm18.452,31.422a12.142,12.142,0,0,0,11.38-21.451l-6.928-3.673L160.856,31.235Zm6.708-23.655,4.559,2.416c4.647,2.468,5.872,9.19,2.792,14.993s-9.28,8.469-13.931,6l-4.556-2.418Zm18.135,20.026c-1.8,3.772,1.527,6.227,1.632,9.245l1.723-2.1c-3.646-2.982-4.9-5.252-1.915-8.9l3.527-4.312,2.182,1.786c3.247,2.658,4.524,3.924,4.931,7.281l1.745-2.13-10.753-8.8-15.378,18.79,10.593,8.67,3.836-3.437c-3.159,1.9-5.393,1.808-7.707-.088l-4.5-3.678Zm14.027,29.383c-3.458,1.313-5.621.867-7.558-1.367L195.285,54.9l18.135-15.73-1.8-2.077L193.274,53.008l8.992,10.365Zm13.339,5.806c3.824,6.807-11.482,6.529-5.349,17.444l.239-.135c-1.178-2.1.512-4.43,2.493-7.082,2.375-3.148,5.214-6.166,2.856-10.362a3.882,3.882,0,0,0-2.383-1.858,47.364,47.364,0,0,1,10.863,1.431c.052.091,3.734,1.1,5.332,2.96l-2.8-4.977c-.264,2.2-5.538,1.1-5.538,1.1-5.564-1.056-10.156-1.436-16.108.963l17.332-9.74-1.279-2.278L204.483,65.83l1.28,2.278a26,26,0,0,1,10.381-3.5A3.969,3.969,0,0,1,219.991,66.468Zm19.321,16.259a12.265,12.265,0,0,0-16.894-3.687,12.156,12.156,0,1,0,16.894,3.687Zm-.253.118c3.379,5.129-.36,11.383-4.972,14.344-4.57,2.872-11.931,3.679-15.169-1.461-3.247-5.063.515-11.358,5.038-14.255C228.537,78.525,235.834,77.738,239.058,82.845Zm.581,23.707c-3.91.314-5.572,4.072-6.92,7.875-3.024,8.285-6.5,9.187-8.573,7.077-3.981-4.028-1.621-11.947,6.609-15.995l-4.765.386c-4.656,4.276-5.393,12.238-2.094,15.9a5.31,5.31,0,0,0,4.446,1.642c4.044-.327,5.709-4.05,7.019-7.916,3.233-8.681,6.981-9.262,8.945-6.727,2.449,2.974,2.44,9.256-4.309,13.287l3.6-.292c4.529-3.332,3.687-15.86-3.957-15.241Zm5.8,34.65-23.713-5.231-.556,2.52,23.476,5.175c-.8,3.629-4.111,5.715-8.384,6.887a41.04,41.04,0,0,1-17.75-.005l-.556,2.518,23.713,5.23.553-2.52-19.277-4.251a36.97,36.97,0,0,0,13.422-.809c4.326-1.087,7.707-3.335,8.516-7Zm-10.417,33.043a12.264,12.264,0,0,0-9.627-14.363,12.155,12.155,0,1,0,9.627,14.363Zm-.264-.088c-1.117,6.037-8.147,7.958-13.523,6.9-5.286-1.1-11.152-5.616-9.925-11.562,1.164-5.9,8.241-7.836,13.51-6.788C230.166,163.75,235.971,168.238,234.758,174.156Zm-40.64,18.2,8.557,17.246c1.181,2.476,3.618,3.808,6.13,2.479,2.655-1.389,3.3-4.606,1.621-7.825l-2.3-4.757,9.295,3.073,1.89-2.187L206.47,196.16l-4.061-8.142,21.536,7.005,1.953-2.265-25.127-8.109-.2.234,5.6,11.149-11.892-3.858Zm13.59,7.052,2.561,5.03c1.293,2.66,1.214,5.91-1.574,7.456-2.418,1.274-4.741-.14-5.91-2.421l-6.873-13.934Zm-22.466,16.5-.859-1.412-8.172,4.961.859,1.412Z" transform="matrix(-0.438, 0.899, -0.899, -0.438, 1118.814, 8728.242)" fill="gray" fill-rule="evenodd"></path><path id="Subtraction_3" data-name="Subtraction 3" d="M34.5,69h0L0,34.5,34.5,0,69,34.5,34.5,69Zm8.307-46.54V47.417h2.781V21.582c-7.606,0-10.068,10.487-10.794,19.285L26.45,21.582H23.412V47.417h.22V22.241l1.024,2.415,9.88,22.761H34.9A68.268,68.268,0,0,1,36.11,33.594c1.28-6.058,3.532-9.8,6.695-11.133Z" transform="translate(919 8750.08)" fill="#1d1d1d"></path></g></svg>