<svg width="142" height="141" viewBox="0 0 142 141" fill="none" xmlns="http://www.w3.org/2000/svg">
<path fill-rule="evenodd" clip-rule="evenodd" d="M85.2192 133.23C83.7386 133.912 82.6929 135.162 83.0865 136.888C83.5922 139.097 86.0933 139.432 88.9708 138.774L92.2911 138.015L89.1929 124.464L84.6442 125.506C81.6926 126.2 79.5397 127.38 80.2452 130.47C80.8689 133.195 82.7621 133.611 85.2192 133.23ZM81.7432 130.128C80.9524 126.673 83.1056 126.019 84.8317 125.624L87.7108 124.965L90.1207 135.502C89.8467 134.849 89.4507 134.254 88.9536 133.749C88.1943 132.993 87.2321 132.669 86.3297 132.875C84.66 133.258 82.5289 133.563 81.7432 130.128ZM84.5845 136.547C84.1056 134.455 85.079 133.322 86.3641 133.03C87.229 132.831 88.0873 133.14 88.8213 133.88C89.5631 134.559 90.1522 135.636 90.4545 136.961L90.7444 138.227L88.941 138.64C87.0983 139.062 85.0853 138.734 84.5845 136.547ZM76.8258 136.131C76.1659 133.831 73.8097 134.041 72.619 132.785L72.679 134.34C75.3738 134.236 76.7723 134.735 76.8763 137.43L76.9977 140.616L75.3848 140.679C72.9844 140.771 71.9574 140.713 70.51 139.427L70.5699 141.001L78.5175 140.697L77.9851 126.807L70.1556 127.107L69.814 130.037C70.4456 128.023 71.4393 127.216 73.1514 127.15L76.4763 127.022L76.8258 136.131ZM62.0979 139.895C57.6753 140.443 56.2955 135.458 56.2955 135.458L55.99 137.484C55.99 137.484 57.5964 140.571 62.1168 140.037C65.9425 139.616 68.6768 136.126 68.2798 132.283C67.7836 128.426 64.4227 125.632 60.5417 126.142C59.1125 126.291 57.7676 126.89 56.7018 127.854L56.3302 130.327C56.9192 128.265 58.3179 126.506 60.567 126.246C64.0116 125.847 66.3521 129.345 66.7222 132.447C67.0166 135.518 65.5643 139.479 62.0979 139.895ZM45.7759 135.816C49.599 136.352 53.1378 133.701 53.6968 129.881C54.2354 126.002 51.6113 122.466 47.7983 121.976C43.9708 121.415 40.4034 124.112 39.9216 127.908C39.3419 131.727 41.98 135.334 45.7759 135.816ZM45.8201 135.663C42.3329 135.206 41.0242 131.245 41.4697 128.141C41.936 125.085 44.3427 121.596 47.7793 122.118C51.1876 122.608 52.5076 126.592 52.0665 129.637C51.6287 132.724 49.2378 136.178 45.8201 135.663ZM23.9696 122.661C27.2772 125.208 31.8433 121.346 34.9034 117.987L32.1268 128.946L33.4214 129.943L41.9044 118.931L41.8115 118.861L33.5442 129.59L33.9003 128.224L37.1636 115.279L37.0078 115.159C34.8199 117.997 29.572 124.293 25.444 123.2L33.6388 112.564L32.4542 111.65L23.9696 122.661ZM23.5459 115.462C24.9321 113.512 23.2987 111.8 23.535 110.086L22.3585 111.104C24.121 113.145 24.6045 114.548 22.5634 116.311L20.1488 118.396L19.0935 117.174C17.5248 115.356 16.9293 114.517 17.0287 112.583L15.838 113.613L21.0355 119.632L31.5566 110.549L26.4347 104.618L23.9336 106.18C25.9023 105.416 27.153 105.689 28.2711 106.986L30.4462 109.505L23.5459 115.462ZM18.3625 89.8077L17.6917 88.2972L7.37988 99.3209L7.43665 99.4469C10.3646 99.7825 14.3589 99.9462 17.3561 99.7572C18.4716 99.7095 19.577 99.5284 20.6497 99.2185C21.4985 98.9492 21.9506 98.5114 21.9506 97.9302C21.9918 97.8193 21.9912 97.6973 21.949 97.5868C21.6261 96.76 20.8243 96.7505 19.7723 96.8088C18.2035 96.8165 16.038 96.9379 14.392 94.0083L18.3625 89.8077ZM14.2897 94.1171C15.978 97.0938 18.1879 96.9741 19.8007 96.9679C20.7551 96.889 21.5127 96.897 21.7789 97.6403C21.774 97.7379 21.7815 97.8359 21.801 97.9316C21.8497 98.4279 21.3473 98.8011 20.5944 99.0925C19.5326 99.3944 18.4388 99.5699 17.3358 99.6155C14.9133 99.7871 11.9224 99.6501 9.31104 99.4973L14.2897 94.1171ZM0.977539 70.9595C1.354 75.1158 7.29016 75.8451 11.8342 75.8088L1.90515 81.2145L2.05164 82.8414L15.8945 81.5909L15.8851 81.4728L2.39355 82.6919L3.63928 82.0256L15.356 75.6295L15.3385 75.4342C11.7695 75.7554 3.58423 76.1791 1.58398 72.4069L14.9559 71.199L14.822 69.709L0.977539 70.9595ZM2.04858 60.936C2.44324 64.7759 5.86401 67.5768 9.7063 67.2063C13.6029 66.8014 16.4064 63.4071 15.9701 59.5863C15.5985 55.7354 12.1255 52.9191 8.32495 53.3585C4.47876 53.7114 1.60913 57.1355 2.04858 60.936ZM2.20764 60.9423C1.81702 57.4474 5.34827 55.2281 8.47156 54.9178C11.5475 54.639 15.512 56.1417 15.8285 59.6035C16.1687 63.0292 12.6154 65.264 9.55518 65.5649C6.45227 65.8784 2.52576 64.3838 2.20764 60.9423ZM19.3328 49.0304C20.844 45.5278 19.2349 41.463 15.7355 39.9441C12.1807 38.3944 8.09497 40.0276 6.59253 43.4738L4.79858 47.5892L17.5389 53.146L19.3328 49.0304ZM5.53882 46.2363L6.71851 43.5289C7.92334 40.7678 11.7065 39.7758 15.1527 41.2797C18.5989 42.7838 20.3929 46.2064 19.1896 48.9675L18.0082 51.6749L5.53882 46.2363ZM16.1782 35.0081C18.4098 35.8712 19.6667 33.8678 21.3853 33.6755L20.111 32.7841C18.5658 34.9954 17.3247 35.8096 15.1134 34.2645L12.4988 32.4376L13.4235 31.1146C14.7999 29.1456 15.4678 28.3629 17.3657 27.9834L16.0742 27.0808L11.5177 33.6L22.9113 41.5634L27.3986 35.1403L25.2708 33.1007C26.4946 34.8206 26.537 36.0996 25.5558 37.5028L23.65 40.2308L16.1782 35.0081ZM32.3409 25.728C33.2419 27.6448 33.0812 28.8984 31.8889 30.1018L29.5485 32.4659L19.7834 22.7968L18.676 23.915L28.5515 33.6959L34.0797 28.114L32.3409 25.728ZM48.2281 18.8971L49.682 18.1095L37.8835 8.69397L37.7622 8.76025C37.6582 11.7054 37.808 15.6998 38.2314 18.672C38.3663 19.7805 38.6327 20.8693 39.0254 21.9149C39.361 22.7402 39.8335 23.156 40.413 23.1102C40.5271 23.1428 40.649 23.1327 40.7563 23.0819C41.5532 22.6945 41.4998 21.8944 41.3595 20.8501C41.2289 19.2861 40.9375 17.1378 43.73 15.2667L48.2281 18.8971ZM43.6134 15.1737C40.7783 17.0905 41.0714 19.283 41.2035 20.891C41.3579 21.8376 41.4083 22.5938 40.6886 22.9165C40.5906 22.9194 40.4933 22.9343 40.3988 22.9607C39.9091 23.0472 39.4963 22.5763 39.1466 21.8486C38.7633 20.8138 38.5032 19.7375 38.3717 18.642C38.0094 16.24 37.9117 13.2474 37.8599 10.6329L43.6134 15.1737ZM52.15 17.4338L53.5801 16.9299L49.0095 3.95007C50.9845 3.27441 52.2131 2.96716 53.8872 3.69336L53.377 2.24438L43.1078 5.8606L43.618 7.30798C44.4324 5.70776 45.5996 5.17078 47.5793 4.45251L52.15 17.4338ZM76.5236 0C72.3497 0.067749 71.1842 5.93469 70.8849 10.4692L66.2275 0.166992L64.5944 0.193726L64.8195 14.0917L64.9376 14.0901L64.7172 0.546509L65.2904 1.83643L70.803 13.9956L71 13.9924C70.9417 10.4092 71.1244 2.21436 75.0352 0.497681L75.2524 13.9231L76.7487 13.8995L76.5236 0ZM86.4746 1.83643C82.6155 1.9364 79.561 5.13367 79.6373 8.99329C79.7429 12.9072 82.9117 15.9644 86.7549 15.8209C90.623 15.7439 93.6976 12.4978 93.5494 8.67517C93.4928 4.81177 90.2988 1.68994 86.4746 1.83643ZM86.4572 1.99548C89.9696 1.87256 91.9131 5.56458 91.984 8.70044C92.0249 11.7906 90.2247 15.6274 86.7501 15.6777C83.3073 15.7565 81.3508 12.041 81.2848 8.96655C81.2092 5.84961 83 2.04907 86.4572 1.99548ZM97.0192 19.9824C100.396 21.7563 104.572 20.4622 106.354 17.089C108.172 13.6633 106.855 9.46582 103.534 7.70349L99.5676 5.60083L93.0549 17.8796L97.0192 19.9824ZM100.859 6.44189L103.469 7.82471C106.129 9.23743 106.83 13.0852 105.068 16.407C103.305 19.7288 99.7551 21.2549 97.0933 19.8436L94.4851 18.4592L100.859 6.44189ZM111.24 17.9048C110.21 20.0641 112.114 21.4691 112.174 23.1969L113.16 21.9935C111.073 20.2864 110.355 18.9869 112.064 16.8983L114.083 14.4303L115.332 15.4525C117.191 16.974 117.922 17.6985 118.155 19.6201L119.153 18.4009L112.998 13.364L104.195 24.1198L110.259 29.0828L112.454 27.1155C110.646 28.2054 109.367 28.1503 108.043 27.0652L105.468 24.9595L111.24 17.9048ZM119.27 34.7245C117.29 35.4757 116.052 35.2206 114.943 33.9418L112.763 31.4281L123.144 22.4236L122.111 21.2345L111.612 30.3428L116.759 36.2759L119.27 34.7245ZM126.905 38.0477C129.095 41.9443 120.333 41.7853 123.844 48.0334L123.981 47.9563C123.306 46.7546 124.273 45.4205 125.408 43.9022C126.767 42.1003 128.392 40.3726 127.042 37.9707C126.75 37.4465 126.258 37.0632 125.678 36.9075C127.685 36.8633 129.617 37.2461 131.897 37.7266C131.927 37.7784 134.034 38.3549 134.949 39.4211L133.349 36.5721C133.198 37.832 130.178 37.2019 130.178 37.2019C126.994 36.5973 124.365 36.3799 120.958 37.7533L130.879 32.1776L130.147 30.8735L118.028 37.6824L118.761 38.9865C121.01 37.7233 122.887 37.1658 124.703 36.9814C125.133 36.9421 126.307 36.983 126.905 38.0477ZM137.965 47.3546C135.87 44.1118 131.55 43.1691 128.294 45.244C125.008 47.3734 124.05 51.6703 126.173 54.877C128.252 58.1387 132.624 59.0728 135.812 56.9559C139.079 54.8958 140.082 50.5424 137.965 47.3546ZM137.82 47.4222C139.754 50.3582 137.614 53.9381 134.974 55.6329C132.358 57.2772 128.145 57.7386 126.291 54.7966C124.432 51.8984 126.586 48.2948 129.175 46.6365C131.797 44.9496 135.974 44.4991 137.82 47.4222ZM138.152 60.9928C135.914 61.1724 134.963 63.3239 134.191 65.5005C132.46 70.2429 130.468 70.7594 129.284 69.5514C127.005 67.2456 128.356 62.7126 133.067 60.3958L130.339 60.6163C127.674 63.0638 127.252 67.6221 129.14 69.72C129.794 70.4155 130.737 70.7639 131.686 70.6602C134.001 70.4728 134.954 68.3418 135.703 66.1289C137.554 61.1597 139.699 60.8274 140.824 62.2781C142.226 63.9806 142.221 67.5763 138.357 69.8837L140.417 69.7167C143.01 67.8093 142.528 60.6384 138.152 60.9928ZM141.473 80.827L127.899 77.8329L127.581 79.2756L141.019 82.2382C140.562 84.3156 138.666 85.5096 136.22 86.1805C133.117 86.9885 129.115 86.8516 126.06 86.1774L125.741 87.6185L139.315 90.6125L139.631 89.1698L128.597 86.7365C131.141 86.9948 133.933 86.9459 136.28 86.2734C138.756 85.6514 140.692 84.3646 141.155 82.2682L141.473 80.827ZM135.51 99.7413C136.246 95.9518 133.784 92.2789 129.999 91.5198C126.154 90.7765 122.486 93.2113 121.794 96.9946C121.034 100.787 123.538 104.49 127.304 105.172C131.089 105.95 134.828 103.507 135.51 99.7413ZM135.358 99.691C134.719 103.147 130.695 104.246 127.617 103.638C124.592 103.011 121.234 100.423 121.936 97.0198C122.602 93.6415 126.653 92.5342 129.67 93.1343C132.73 93.7343 136.053 96.3031 135.358 99.691ZM112.095 110.11L116.994 119.982C117.669 121.4 119.065 122.162 120.503 121.401C122.023 120.606 122.39 118.765 121.431 116.922L120.115 114.199L125.436 115.958L126.518 114.706L119.166 112.286L116.841 107.626L129.169 111.636L130.287 110.34L115.904 105.698L115.789 105.832L118.992 112.214L112.185 110.006L112.095 110.11ZM119.875 114.147L121.341 117.026C122.081 118.549 122.035 120.409 120.44 121.294C119.055 122.023 117.726 121.214 117.057 119.908L113.122 111.932L119.875 114.147ZM107.014 123.592L106.523 122.784L101.845 125.624L102.337 126.432L107.014 123.592Z" fill="black"/>
<line x1="89.752" y1="70.4758" x2="52.8547" y2="70.4758" stroke="#808080" stroke-width="2" stroke-linecap="round" stroke-linejoin="round"/>
<line x1="89.3402" y1="69.3928" x2="84.186" y2="63.5944" stroke="#808080" stroke-width="2" stroke-linecap="round" stroke-linejoin="round"/>
<line x1="90.835" y1="70.8876" x2="85.6808" y2="76.686" stroke="#808080" stroke-width="2" stroke-linecap="round" stroke-linejoin="round"/>
</svg>
