<svg width="22" height="16" viewBox="0 0 22 16" fill="none" xmlns="http://www.w3.org/2000/svg">
<path d="M20.2648 0.419922H1.73539C1.00443 0.419922 0.411865 1.01249 0.411865 1.74345V14.0964C0.411865 14.8274 1.00443 15.4199 1.73539 15.4199H20.2648C20.9958 15.4199 21.5883 14.8274 21.5883 14.0964V1.74345C21.5883 1.01249 20.9958 0.419922 20.2648 0.419922ZM19.9825 1.30227L11.0001 8.24639L2.01775 1.30227H19.9825ZM1.29422 13.9155V1.85816L8.09275 7.11257L1.29422 13.9155ZM1.91628 14.5376L8.79422 7.65963L10.7266 9.15522C10.8852 9.27733 11.1062 9.27733 11.2648 9.15522L13.206 7.65963L20.0839 14.5376H1.91628ZM20.706 13.9155L13.9075 7.11257L20.706 1.85816V13.9155Z" fill="black"/>
</svg>
