<svg width="21" height="19" viewBox="0 0 21 19" fill="none" xmlns="http://www.w3.org/2000/svg">
<path d="M10.4118 18.86C4.94819 18.86 0.481934 14.6186 0.481934 9.43C0.481934 4.24144 4.94819 0 10.4118 0C15.8754 0 20.3416 4.24144 20.3416 9.43C20.385 14.6186 15.9187 18.86 10.4118 18.86ZM10.4118 0.988287C5.51191 0.988287 1.56597 4.77678 1.56597 9.38882C1.56597 14.0009 5.55527 17.7893 10.4118 17.7893C15.2683 17.7893 19.2576 14.0009 19.2576 9.38882C19.2576 4.77678 15.3116 0.988287 10.4118 0.988287Z" fill="#808080"/>
<path d="M13.5339 14.2477L9.84814 10.7475V4.36475H11.0189V10.2945L14.3578 13.4653L13.5339 14.2477Z" fill="#808080"/>
</svg>
