<svg width="20" height="19" viewBox="0 0 20 19" fill="none" xmlns="http://www.w3.org/2000/svg">
<path d="M19.4572 15.8257L15.3427 11.9227C16.1928 10.7073 16.6904 9.252 16.6904 7.68758C16.6904 3.44865 13.0549 0 8.58619 0C4.1175 0 0.481934 3.44865 0.481934 7.68758C0.481934 11.9265 4.1175 15.3752 8.58619 15.3752C10.2354 15.3752 11.7695 14.9031 13.0508 14.0967L17.1653 17.9997C17.7975 18.6001 18.8251 18.6001 19.4572 17.9997C20.0902 17.3993 20.0902 16.4261 19.4572 15.8257ZM2.91321 7.68758C2.91321 4.72018 5.45794 2.30627 8.58619 2.30627C11.7144 2.30627 14.2592 4.72018 14.2592 7.68758C14.2592 10.655 11.7144 13.0689 8.58619 13.0689C5.45794 13.0689 2.91321 10.655 2.91321 7.68758Z" fill="#808080"/>
</svg>
