<svg xmlns="http://www.w3.org/2000/svg" width="341.499" height="63.179" viewBox="0 0 341.499 63.179"><g id="Group_13177" data-name="Group 13177" transform="translate(-758 -12111.65)"><g id="Group_41" data-name="Group 41" transform="translate(-201.501 -21)"><path id="Subtraction_6" data-name="Subtraction 6" d="M23,46h0L0,23,23,0,46,23,23,46Zm5.538-31.026h0V31.611h1.854V14.388c-5.07,0-6.712,6.991-7.2,12.856L17.633,14.388H15.608V31.611h.146V14.827l.683,1.61,6.587,15.174h.244a45.512,45.512,0,0,1,.8-9.215c.853-4.039,2.355-6.536,4.463-7.422Z" transform="translate(959.501 12149.829)" fill="#fff"></path><text id="MODELKOS_Academy" data-name="MODELKOS Academy" transform="translate(1016 12183)" fill="#fff" font-size="30" font-family="SegoeUI, Segoe UI"><tspan x="0" y="0">MODELKOS Academy</tspan></text></g><path id="Path_24" data-name="Path 24" d="M16.336.5,31.167,9.744l-1.576,1V17.41H27.369V12.18l-4.944,3.081a7.258,7.258,0,0,1,1.433,1,4.577,4.577,0,0,1,1.72,3.367c0,1.863-1.29,3.439-3.3,4.514a14.4,14.4,0,0,1-6.735,1.5,14.306,14.306,0,0,1-6.663-1.5c-2.006-1.075-3.3-2.651-3.3-4.514a4.513,4.513,0,0,1,1.576-3.3,6.129,6.129,0,0,1,1.576-1.075L0,9.744,15.548,0l.788.5Zm3.153,16.551-3.941,2.436-3.869-2.436A7.853,7.853,0,0,0,9.1,18.413a1.857,1.857,0,0,0-.645,1.218c0,.716.645,1.433,1.72,2.006a11.9,11.9,0,0,0,5.374,1.218,11.457,11.457,0,0,0,5.374-1.218c1.075-.573,1.791-1.29,1.791-2.006A1.981,1.981,0,0,0,22,18.342,7.421,7.421,0,0,0,19.488,17.052Zm1.791-10.1L15.548,3.367,5.374,9.744l10.174,6.448L25.793,9.744,21.279,6.95Z" transform="translate(758 12117.063) rotate(-10)" fill="#e2e2e2"></path></g></svg>