<svg xmlns="http://www.w3.org/2000/svg" width="165.405" height="165.342" viewBox="0 0 165.405 165.342">
  <g id="Group_12" data-name="Group 12" transform="translate(-150 -5428)">
    <path id="Contact_us_now_-_ModelKos_Agency" data-name="Contact us now! - ModelKos Agency" d="M1156.444,1218.111c-4.519,2.345-7.977-2.448-7.977-2.448l.478,2.289s2.946,2.671,7.575.3a8.033,8.033,0,0,0,3.523-10.751,7.9,7.9,0,0,0-10.724-3.507,7.7,7.7,0,0,0-3.434,3.36l.583,2.8c-.188-2.442.612-4.884,2.918-6.055,3.531-1.792,7.426,1.024,9.055,4.2C1159.975,1211.47,1159.994,1216.292,1156.444,1218.111Zm-18.918,2.178a8.016,8.016,0,0,0,6.016-9.571,7.947,7.947,0,1,0-6.016,9.571Zm-.017-.181c-3.9.94-6.922-2.749-7.719-6.243-.752-3.447.385-8.154,4.264-9,3.836-.875,6.874,2.837,7.65,6.263C1142.5,1214.595,1141.366,1219.257,1137.51,1220.108Zm-15.149-.99,4.156-15.325-1.629-.441-4.113,15.173c-2.345-.635-3.6-2.865-4.236-5.692a26.85,26.85,0,0,1,.558-11.594l-1.629-.441-4.156,15.324,1.629.443,3.378-12.461a24.186,24.186,0,0,0,.11,8.792c.577,2.859,1.939,5.139,4.3,5.781Zm-13.191-21.27-1.545-.782-7.1,14.026c-2.116-1.1-3.339-1.867-4.065-3.823l-.791,1.565,11.1,5.617.793-1.565c-1.965.594-3.33.054-5.487-1.012Zm-13.127-8.279-1.537-1.1-3.765,16.828.128.091a71.034,71.034,0,0,0,9.945-5.442,16.093,16.093,0,0,0,2.933-2.437c.679-.757.871-1.452.534-2.023a.559.559,0,0,0-.2-.339c-.8-.625-1.593-.169-2.594.5-1.541.916-3.6,2.291-6.92.359Zm-1.515,6.6c3.387,1.952,5.492.555,7.078-.385.893-.633,1.644-1.065,2.336-.486a1.357,1.357,0,0,0,.192.274c.335.461.058,1.12-.516,1.844a16.256,16.256,0,0,1-2.905,2.4,75.914,75.914,0,0,1-7.97,4.532Zm-15.372-1.418c-4.348-2.647-2.047-8.089-2.047-8.089l-1.709,1.6s-.754,3.905,3.672,6.634a8.036,8.036,0,0,0,11.018-2.569,7.905,7.905,0,0,0-2.569-10.987,7.727,7.727,0,0,0-4.653-1.193l-2.088,1.949c1.992-1.428,4.493-2.01,6.689-.646,3.367,2.086,2.98,6.879,1.111,9.919C1086.666,1194.326,1082.555,1196.844,1079.156,1194.754Zm2.306-22.182-.884-1.491-13.524,8.013c-1.2-2.062-1.815-3.369-1.374-5.407l-1.509.893,6.339,10.7,1.508-.893c-1.975-.555-2.837-1.744-4.082-3.8Zm-22.432-11.514.408,1.729,9.872-2.332c4.333-1.026,5.651-5.911,3.324-9.5a5.462,5.462,0,0,0-6.1-2.256l-9.87,2.332.4,1.707c1.541-1.889,6.232-3.067,9.513-3.842a5.211,5.211,0,0,1,5.893,2.142c2.146,3.214.063,6.825-3.57,7.685Zm.839-16.048c2.561-.08,3.767-2.481,4.77-4.921,2.239-5.314,4.541-5.792,5.826-4.348,2.472,2.756.676,7.854-4.828,10.233l3.123-.1c3.179-2.643,3.916-7.819,1.878-10.321a3.476,3.476,0,0,0-2.852-1.214c-2.652.084-3.858,2.462-4.837,4.947-2.388,5.565-4.856,5.824-6.058,4.106-1.5-2.021-1.3-6.124,3.24-8.54l-2.36.075C1054.708,1136.963,1054.856,1145.171,1059.87,1145.01Zm-2.76-22.672,15.357,4.031.428-1.632-15.2-3.99c.616-2.351,2.835-3.628,5.658-4.283a26.867,26.867,0,0,1,11.6.464l.428-1.63-15.359-4.031-.428,1.63,12.487,3.278a24.2,24.2,0,0,0-8.791.18c-2.855.6-5.124,1.98-5.746,4.352Zm7.56-21.226a8.022,8.022,0,0,0,6,9.587,7.949,7.949,0,1,0-6-9.587Zm.171.065c.854-3.925,5.489-5.035,8.981-4.229,3.432.825,7.173,3.9,6.25,7.761-.884,3.832-5.548,4.953-8.971,4.158C1067.627,1108.074,1063.925,1105.02,1064.841,1101.178Zm26.85-11.127-5.336-11.4c-.735-1.636-2.31-2.543-3.97-1.71-1.757.869-2.224,2.961-1.176,5.09l1.431,3.146-6.032-2.15-1.266,1.4,8.333,2.956,2.533,5.383-13.974-4.9-1.312,1.452,16.306,5.675.136-.151-3.494-7.372,7.717,2.7Zm-8.778-4.811-1.6-3.328c-.8-1.759-.705-3.881,1.141-4.85,1.6-.8,3.1.164,3.827,1.671l4.286,9.209Zm5-11.83,7.506,8.441.141-.11-6.825-10.1Zm8.545,9.826a1.119,1.119,0,0,0-.231,1.541,1.087,1.087,0,0,0,1.537.151,1.039,1.039,0,0,0,.225-1.51,1.07,1.07,0,0,0-1.532-.182Zm4.917-10.685.5.96,5.558-2.866-.5-.96Zm26.659-16.993c-4.666.985-4.694,7.817-4.043,12.967l-7.467-10.538-1.826.387,3.279,15.536.132-.028-3.2-15.139.923,1.321,8.832,12.433.22-.047c-.847-4.005-2.427-13.234,1.584-16.01l3.17,15.007,1.672-.354Zm11.393-.171a8.019,8.019,0,0,0-6.01,9.578,7.949,7.949,0,1,0,6.01-9.578Zm.015.181c3.9-.942,6.926,2.742,7.724,6.235.757,3.449-.378,8.156-4.255,9.01-3.834.877-6.877-2.831-7.657-6.256C1134.457,1061.085,1135.591,1056.421,1139.446,1055.566Zm15.962,17.634a7.94,7.94,0,0,0,4.322-15.279l-4.934-1.4-4.32,15.279Zm1.033-16.046,3.246.919c3.311.936,5.018,5.065,3.849,9.2s-4.767,6.691-8.078,5.755l-3.246-.917Zm14.307,10.263c-.618,2.663,1.852,3.762,2.345,5.675l.8-1.584c-2.749-1.392-3.87-2.665-2.477-5.414l1.646-3.252,1.645.834c2.448,1.24,3.442,1.869,4.175,3.953l.813-1.6-8.108-4.1-7.173,14.164,7.987,4.044,1.966-2.736c-1.75,1.66-3.188,1.915-4.934,1.031l-3.391-1.716Zm13.107,16.736c-2.016,1.336-3.46,1.364-5.018.218l-3.06-2.252,9.3-12.643-1.448-1.067-9.411,12.787,7.227,5.319Zm9.327,1.712c3.447,3.765-6.339,5.863-.813,11.9l.132-.121c-1.063-1.161-.333-2.9.534-4.88,1.044-2.356,2.4-4.7.279-7.022a2.545,2.545,0,0,0-1.794-.828,31.044,31.044,0,0,1,7.132-.7c.045.05,2.541.145,3.834,1.093l-2.52-2.753c.16,1.439-3.361,1.523-3.361,1.523-3.7.154-6.682.6-10.114,3.006l9.589-8.776-1.154-1.262-11.713,10.721,1.154,1.262a16.984,16.984,0,0,1,6.088-3.775A2.6,2.6,0,0,1,1193.182,1085.866Zm14.682,7.346a8.019,8.019,0,0,0-11.3.259,7.948,7.948,0,1,0,11.3-.259Zm-.141.114c2.935,2.74,1.522,7.291-.953,9.881-2.461,2.529-7.015,4.175-9.863,1.409-2.844-2.718-1.426-7.3,1.005-9.837C1200.368,1092.2,1204.885,1090.576,1207.722,1093.326Zm4.013,14.881c-2.429.821-2.887,3.467-3.14,6.094-.6,5.734-2.667,6.859-4.314,5.85-3.166-1.923-2.924-7.322,1.655-11.2l-2.963,1c-2.274,3.451-1.48,8.618,1.195,10.421a3.478,3.478,0,0,0,3.08.337c2.515-.851,2.98-3.477,3.2-6.137.672-6.019,2.959-6.982,4.607-5.688,2.027,1.5,3.017,5.487-.624,9.115l2.237-.758C1219.006,1114.414,1216.486,1106.6,1211.734,1108.206Zm-6.349,32.425.048,1.889,15.7-7.125,0-.158a71.027,71.027,0,0,0-10.333-4.664,16.012,16.012,0,0,0-3.711-.875c-1.015-.086-1.683.179-1.938.793a.552.552,0,0,0-.147.363c-.02,1.012.823,1.374,1.956,1.772,1.66.679,4,1.5,4.454,5.31Zm6.185-2.768c-.48-3.879-2.864-4.718-4.569-5.418-1.044-.333-1.839-.674-1.794-1.574a1.309,1.309,0,0,0,.1-.317c.166-.545.858-.72,1.781-.7a15.974,15.974,0,0,1,3.667.875,75.746,75.746,0,0,1,8.417,3.633Zm-6.531,17.09a5.033,5.033,0,0,1-.96-2.61c-.372-3.877,3.693-6.5,7.236-6.8,3.52-.277,8,1.532,8.381,5.481.488,4.925-4.934,6.421-5.219,6.485l2.3.4s3.574-1.772,3.073-6.883a7.991,7.991,0,0,0-8.681-7.291,7.889,7.889,0,0,0-7.212,8.625,7.434,7.434,0,0,0,1.848,4.456l4.629.808,1.478-8.463-1.7-.3c1.165,1.824.817,4.344.344,7.047Zm6.611,8.37c-2.708-.363-3.57,2.2-5.427,2.87l1.653.65c1.126-2.868,2.289-4.1,5.157-2.978l3.391,1.333-.676,1.716c-1,2.556-1.536,3.6-3.542,4.528l1.675.659,3.32-8.458-14.778-5.805-3.272,8.331,2.909,1.7c-1.818-1.584-2.208-2.993-1.493-4.815l1.39-3.538Zm.167,13.167-13.494-8.368-.89,1.433,13.36,8.286c-1.281,2.064-3.776,2.634-6.667,2.429a26.86,26.86,0,0,1-10.948-3.853l-.89,1.433,13.494,8.368.888-1.433-10.97-6.8a24.139,24.139,0,0,0,8.456,2.412c2.9.268,5.479-.385,6.771-2.468Zm-13.455,17.749c-2.425,4.478-7.975,2.453-7.975,2.453l1.681,1.627s3.937.557,6.438-4a8.033,8.033,0,0,0-3.12-10.875,7.907,7.907,0,0,0-10.844,3.118,7.722,7.722,0,0,0-.957,4.709l2.053,1.986c-1.526-1.915-2.235-4.385-.983-6.648,1.915-3.467,6.721-3.322,9.85-1.608,3.051,1.764,5.772,5.744,3.856,9.241Zm-18.216,13.719a2.647,2.647,0,0,1-.6,1.956l2.105-1.424a.883.883,0,0,1-1.34-.776l-.96-8.041,2.928,1.359,6.133,2.881,1.677-1.134-9.712-4.56-3.745-5.532-1.472,1,4.009,5.922Z" transform="translate(-905.733 4372.834)" fill="#fff" fill-rule="evenodd"/>
    <g id="arrow-left" transform="translate(218 5506)">
      <line id="Line_2" data-name="Line 2" x1="27.523" transform="translate(0 5.161)" fill="none" stroke="#fff" stroke-linecap="round" stroke-linejoin="round" stroke-width="2"/>
      <line id="Line_3" data-name="Line 3" x1="4.587" y1="5.161" transform="translate(22.936)" fill="none" stroke="#fff" stroke-linecap="round" stroke-linejoin="round" stroke-width="2"/>
      <line id="Line_4" data-name="Line 4" x1="4.587" y2="5.161" transform="translate(22.936 5.161)" fill="none" stroke="#fff" stroke-linecap="round" stroke-linejoin="round" stroke-width="2"/>
    </g>
  </g>
</svg>
