<svg width="185" height="186" viewBox="0 0 185 186" fill="none" xmlns="http://www.w3.org/2000/svg">

<path fill-rule="evenodd" clip-rule="evenodd" d="M108.917 183.874C113.644 182.645 113.35 175.654 112.442 170.417L120.577 180.844L122.427 180.364L118.338 164.625L118.204 164.659L122.189 179.998L121.183 178.688L111.562 166.386L111.339 166.443C112.393 170.5 114.445 179.868 110.473 182.898L106.522 167.693L104.828 168.133L108.917 183.874ZM97.675 184.729C101.992 183.402 104.428 178.84 103.129 174.514C101.779 170.134 97.2456 167.687 92.9591 169.058C90.8828 169.681 89.1423 171.11 88.126 173.024C87.1096 174.939 86.9022 177.181 87.5498 179.25C88.8297 183.583 93.4119 186.098 97.675 184.729ZM97.6453 184.546C93.7246 185.788 90.3735 182.239 89.3062 178.726C88.2876 175.258 89.1104 170.366 93.0101 169.218C96.865 168.046 100.24 171.618 101.281 175.063C102.347 178.552 101.524 183.398 97.6453 184.546ZM80.0568 167.853C75.6377 167.053 71.407 169.987 70.6072 174.406C69.8074 178.825 72.7415 183.056 77.1606 183.855L82.3276 184.791L85.2236 168.788L80.0568 167.853ZM80.5884 184.312L77.1885 183.696C73.7205 183.068 71.5728 179.028 72.3574 174.699C73.1421 170.37 76.5569 167.406 80.0249 168.033L83.4248 168.65L80.5884 184.312ZM65.1748 175.407C65.4852 172.626 62.8445 171.803 62.113 169.915L61.4857 171.623C64.4476 172.711 65.7383 173.874 64.6519 176.836L63.3633 180.338L61.59 179.685C58.9534 178.716 57.869 178.195 56.8739 176.162L56.238 177.891L64.9729 181.102L70.582 165.837L61.9768 162.675L60.3036 165.692C61.8855 163.794 63.3186 163.364 65.2004 164.055L68.8534 165.399L65.1748 175.407ZM49.8125 160.121C51.6793 158.493 53.1401 158.27 54.8773 159.222L58.292 161.093L50.5608 175.193L52.1768 176.079L59.9952 161.818L51.9365 157.4L49.8125 160.121ZM40.1887 159.843C36.115 156.566 45.696 152.922 39.1641 147.666L39.0471 147.81C40.3037 148.82 39.8359 150.689 39.2661 152.833C38.5751 155.382 37.5608 157.965 40.074 159.988C40.6207 160.428 41.3225 160.629 42.0195 160.545C39.8572 161.467 37.5948 161.895 34.9094 162.365C34.8562 162.322 32.3154 162.614 30.8566 161.854L33.8357 164.251C33.4507 162.82 37.0037 162.188 37.0037 162.188C40.7247 161.457 43.674 160.547 46.7761 157.572L38.4325 167.946L39.7955 169.043L49.9868 156.371L48.6238 155.274C46.7314 157.625 44.9369 159.05 43.0466 160.041C42.5958 160.27 41.303 160.738 40.1887 159.843ZM24.3353 154.999C28.0959 157.501 33.1707 156.495 35.6938 152.75C38.2263 148.931 37.2483 143.875 33.4741 141.425C31.6768 140.213 29.4692 139.772 27.344 140.198C25.2188 140.625 23.3528 141.885 22.1624 143.696C19.6191 147.432 20.5759 152.569 24.3353 154.999ZM24.4586 154.861C21.014 152.614 21.637 147.774 23.6782 144.725C25.7175 141.74 30.0232 139.275 33.3826 141.568C36.7314 143.809 36.1042 148.68 34.0992 151.667C32.075 154.702 27.8032 157.134 24.4586 154.861ZM17.8842 140.862C20.1572 139.552 20.0869 136.8 19.8148 134.113C19.2683 128.231 21.1161 126.688 22.9745 127.372C26.5381 128.667 27.3801 134.138 23.5593 138.946L26.3319 137.347C27.9246 133.424 26.0895 128.393 23.0404 127.119C22.0009 126.712 20.8303 126.816 19.8787 127.4C17.5248 128.759 17.5844 131.489 17.9011 134.206C18.4327 140.385 16.3298 141.812 14.4141 140.842C12.0793 139.743 10.2849 135.937 13.2128 131.563L11.1183 132.771C9.33447 136.088 13.4338 143.428 17.8842 140.862ZM12.2346 120.413L13.2914 120.09L11.4202 113.966L10.3613 114.289L12.2346 120.413ZM15.9216 92.7777L15.8003 90.845L0 98.7398L0.0106201 98.9014C3.0874 100.462 7.39941 102.267 10.7654 103.279C12.0081 103.681 13.2944 103.933 14.5969 104.03C15.6388 104.081 16.3129 103.786 16.549 103.148C16.6387 103.042 16.6879 102.908 16.6871 102.769C16.668 101.731 15.7941 101.394 14.6161 101.03C12.8916 100.398 10.4678 99.652 9.85327 95.7672L15.9216 92.7777ZM9.698 95.846C10.3379 99.7987 12.8086 100.566 14.582 101.217C15.6621 101.517 16.4893 101.836 16.4786 102.759C16.4331 102.864 16.4016 102.975 16.3851 103.088C16.2341 103.652 15.5325 103.858 14.5863 103.871C13.2996 103.768 12.0293 103.515 10.8015 103.116C8.07349 102.318 4.8479 100.951 2.04761 99.7201L9.698 95.846ZM15.4666 78.1192C16.0844 78.865 16.4786 79.77 16.6041 80.7302C17.2185 84.6724 13.219 87.5982 9.61279 88.1127C6.03223 88.606 1.34375 87.0261 0.714355 83.0117C-0.0786133 78.0064 5.37305 76.1502 5.66223 76.0673L3.28088 75.7951C3.28088 75.7951 -0.265869 77.8216 0.552734 83.016C0.86145 85.1736 2.01831 87.119 3.7666 88.4207C5.51489 89.7224 7.71045 90.2729 9.86597 89.9497C14.3502 89.2588 17.4951 85.0976 16.7231 80.6962C16.5176 79.0174 15.759 77.4546 14.5671 76.2543L9.78308 75.7058L8.78162 84.4469L10.5442 84.6489C9.24292 82.8544 9.44702 80.256 9.76819 77.4643L15.4666 78.1192ZM8.05432 70.1647C10.8483 70.3135 11.5181 67.6281 13.3616 66.7903L11.6201 66.263C10.7036 69.2822 9.61938 70.6388 6.5979 69.7224L3.02783 68.6403L3.57642 66.8329C4.39075 64.1431 4.8479 63.031 6.82104 61.9212L5.05835 61.3853L2.35803 70.2923L17.9224 75.0105L20.5825 66.2353L17.4738 64.7405C19.4597 66.2077 19.9722 67.6154 19.3896 69.5332L18.2605 73.2586L8.05432 70.1647ZM6.66589 57.0051L21.2585 64.1814L22.022 62.6291L7.57166 55.5253C8.66882 53.2926 11.1566 52.4634 14.1228 52.3805C17.8735 52.3252 22.3833 53.5924 25.6707 55.2084L26.4318 53.6583L11.8391 46.4821L11.0758 48.0343L22.9426 53.8667C20.1232 52.8673 16.9338 52.1466 14.0824 52.2572C11.095 52.2785 8.53491 53.2012 7.427 55.4551L6.66589 57.0051ZM18.2795 37.7559C20.1975 32.9058 26.0916 34.2879 26.0916 34.2879L24.1843 32.8378C24.1843 32.8378 20.1125 32.7528 18.1245 37.6941C16.4064 41.8574 18.4561 46.6247 22.6235 48.3723C26.8613 50.0288 31.6179 48.147 33.27 43.8773C33.9211 42.3263 34.0612 40.6081 33.6697 38.9722L31.3394 37.203C33.1254 38.9657 34.1481 41.3897 33.1509 43.8434C31.6263 47.6027 26.7209 48.0429 23.3296 46.682C20.0126 45.2616 16.7593 41.547 18.2795 37.7559ZM34.7095 21.611C34.55 21.1942 34.6265 19.9759 35.0391 19.5401L33.1105 21.2857C33.4656 21.0263 34.3054 20.8561 34.5818 21.881L36.7146 29.8949L33.5486 28.9403L26.9146 26.9011L25.3772 28.2919L35.8833 31.5174L40.476 36.5885L41.8262 35.3659L36.9082 29.9375L34.7095 21.611ZM48.677 19.8291L49.2108 20.7967L54.8177 17.705L54.2839 16.7376L48.677 19.8291ZM74.9153 1.35805C70.2014 2.62966 70.5608 9.62087 71.5198 14.8494L63.2847 4.49868L61.439 4.99612L65.6768 20.6967L65.8105 20.6605L61.6792 5.35976L62.6998 6.66103L72.4382 18.8723L72.6594 18.8128C71.5686 14.7643 69.4253 5.41714 73.3695 2.34682L77.4648 17.5158L79.1553 17.0586L74.9153 1.35805ZM86.157 0.396995C81.8517 1.76296 79.4576 6.34951 80.7988 10.6629C82.1895 15.0281 86.7439 17.4329 91.0177 16.0253C93.0884 15.3828 94.8156 13.9384 95.814 12.0139C96.8123 10.0896 96.9987 7.8456 96.3313 5.78286C95.0131 1.46011 90.4075 -1.01267 86.157 0.396995ZM86.189 0.579857C90.0991 -0.698097 93.4822 2.81887 94.5813 6.32095C95.6318 9.7803 94.8557 14.6792 90.9645 15.8657C87.1204 17.0714 83.7141 13.531 82.6401 10.0972C81.543 6.61855 82.3212 1.7643 86.189 0.579857ZM103.931 17.1096C108.357 17.8679 112.56 14.8939 113.318 10.4671C114.077 6.04043 111.103 1.8373 106.676 1.07925L101.498 0.192894L98.7532 16.2229L103.931 17.1096ZM103.242 0.656395L106.648 1.23904C110.12 1.8345 112.308 5.85305 111.564 10.1907C110.82 14.5283 107.435 17.5221 103.96 16.9268L100.556 16.3443L103.242 0.656395ZM118.736 9.4125C118.453 12.1958 121.103 12.9953 121.851 14.8771L122.461 13.1632C119.489 12.1022 118.188 10.9519 119.248 7.97927L120.501 4.46462L122.281 5.10036C124.928 6.04446 126.016 6.55471 127.031 8.58108L127.652 6.84389L118.885 3.71828L113.42 19.034L122.055 22.1149L123.701 19.0828C122.138 20.9943 120.707 21.4387 118.819 20.7647L115.153 19.4571L118.736 9.4125ZM134.243 24.5515C132.393 26.1995 130.935 26.4376 129.189 25.4999L125.757 23.6629L133.352 9.49123L131.728 8.61941L124.045 22.9527L132.146 27.2967L134.243 24.5515ZM133.918 28.5532L135.355 29.5122L144.383 15.9849L142.946 15.0259L133.918 28.5532ZM147.258 17.8007L136.814 30.2649L138.138 31.3749L148.479 19.034C150.386 20.6308 150.601 23.2439 149.973 26.1442C149.133 29.7992 146.829 33.8775 144.477 36.6863L145.802 37.7941L156.246 25.3297L154.921 24.2199L146.429 34.3537C148.073 31.8554 149.531 28.9296 150.103 26.1336C150.794 23.2268 150.507 20.5224 148.583 18.9083L147.258 17.8007ZM156.395 47.6452C155.429 47.5645 154.507 47.213 153.732 46.631C150.484 44.3133 151.189 39.408 153.345 36.4716C155.497 33.5672 159.907 31.3218 163.216 33.6798C167.347 36.614 164.859 41.8107 164.717 42.0744L166.577 40.5625C166.577 40.5625 167.611 36.6098 163.326 33.5607C161.568 32.2727 159.368 31.739 157.215 32.0778C155.062 32.4168 153.133 33.6001 151.855 35.3659C149.212 39.055 149.988 44.2112 153.671 46.7394C155.015 47.7669 156.663 48.3183 158.355 48.3064L162.093 45.2722L156.548 38.4405L155.17 39.559C157.364 39.8842 159.076 41.8468 160.847 44.0283L156.395 47.6452ZM167.689 53.5775L166.688 54.0495L169.416 59.8438L170.417 59.3717L167.689 53.5775ZM167.979 81.4595L168.374 83.354L182.892 73.2989L182.861 73.1415C179.594 72.0316 175.068 70.8557 171.595 70.3305C170.307 70.1098 168.998 70.0426 167.694 70.1308C166.656 70.2284 166.031 70.6176 165.886 71.2831C165.812 71.4002 165.783 71.5396 165.803 71.6765C165.969 72.7013 166.884 72.9098 168.1 73.1054C169.896 73.4838 172.403 73.8814 173.562 77.6386L167.979 81.4595ZM173.705 77.5386C172.51 73.7177 169.954 73.3074 168.108 72.9141C166.996 72.7693 166.131 72.5738 166.012 71.6572C166.042 71.5464 166.058 71.432 166.059 71.3172C166.126 70.7389 166.792 70.4347 167.728 70.288C169.017 70.2071 170.31 70.2777 171.583 70.4984C174.396 70.9026 177.781 71.7978 180.728 72.6205L173.705 77.5386ZM184.398 88.9525C185.935 93.9367 180.475 96.5454 180.475 96.5454L182.869 96.4817C182.869 96.4817 186.099 94.0004 184.559 88.9036C183.292 84.5808 178.712 82.1442 174.366 83.3881C170.024 84.7467 167.492 89.1907 168.874 93.5559C169.335 95.1739 170.302 96.602 171.632 97.6321L174.555 97.5556C172.059 97.2982 169.746 96.0459 168.987 93.507C167.826 89.6203 171.376 86.2097 174.874 85.1486C178.351 84.1812 183.211 85.0446 184.398 88.9525ZM166.682 110.381L166.348 112.286L183.556 108.314L183.583 108.157C180.96 105.918 177.19 103.152 174.156 101.379C173.041 100.697 171.85 100.15 170.607 99.7498C169.605 99.4585 168.88 99.5883 168.502 100.152C168.39 100.233 168.31 100.353 168.279 100.488C168.053 101.5 168.825 102.033 169.884 102.665C171.413 103.681 173.594 104.976 173.282 108.897L166.682 110.381ZM173.452 108.857C173.756 104.864 171.532 103.539 169.962 102.491C168.982 101.944 168.251 101.442 168.478 100.547C168.548 100.456 168.605 100.356 168.648 100.25C168.925 99.7349 169.656 99.701 170.579 99.9093C171.807 100.31 172.982 100.854 174.083 101.53C176.548 102.946 179.363 105.029 181.795 106.884L173.452 108.857ZM164.015 118.78C162.393 122.968 164.472 127.678 168.66 129.3C172.848 130.923 177.558 128.843 179.18 124.655L181.076 119.758L165.912 113.881L164.015 118.78ZM180.277 121.374L179.029 124.595C177.755 127.883 173.382 129.226 169.28 127.636C165.178 126.046 162.914 122.133 164.188 118.846L165.436 115.625L180.277 121.374ZM168.619 134.817C165.944 133.987 164.636 136.426 162.644 136.785L164.205 137.725C165.833 135.021 167.217 133.975 169.92 135.603L173.116 137.528L172.142 139.146C170.692 141.553 169.973 142.52 167.79 143.113L169.367 144.064L174.17 136.092L160.241 127.698L155.508 135.552L158.155 137.766C156.59 135.854 156.439 134.364 157.473 132.648L159.482 129.314L168.619 134.817ZM157.485 158.65C160.698 154.972 156.514 149.362 152.812 145.548L165.41 149.577L166.667 148.136L154.419 137.44L154.328 137.544L166.265 147.968L164.696 147.453L149.814 142.714L149.661 142.888C152.818 145.643 159.794 152.224 158.221 156.968L146.388 146.634L145.238 147.953L157.485 158.65ZM144.098 167.872C144.224 168.299 144.049 169.509 143.603 169.911L145.666 168.323C145.291 168.552 144.441 168.656 144.247 167.612L142.763 159.454L145.842 160.659L152.293 163.222L153.935 161.959L143.72 157.902L139.548 152.482L138.106 153.592L142.574 159.396L144.098 167.872ZM136.284 165.082L135.746 164.117L130.15 167.23L130.688 168.195L136.284 165.082Z" fill="white"/>
</svg>
