<svg xmlns="http://www.w3.org/2000/svg" width="99.787" height="99.771" viewBox="0 0 99.787 99.771">
  <g id="Group_8" data-name="Group 8" transform="translate(-1238 -4695)">
    <path id="Become_a_model_at_modelkos_now_-" data-name="Become a model at modelkos now -" d="M1111.489,1146.012a2.256,2.256,0,0,0-1.509,2.589c.358,1.563,2.128,1.8,4.164,1.334l2.349-.537-2.192-9.588-3.219.737c-2.089.491-3.612,1.326-3.113,3.513C1108.411,1145.988,1109.75,1146.282,1111.489,1146.012Zm-2.46-2.194c-.56-2.445.964-2.908,2.185-3.187l2.037-.466,1.705,7.456a3.937,3.937,0,0,0-.826-1.24,2.006,2.006,0,0,0-1.857-.619C1111.093,1146.032,1109.585,1146.249,1109.029,1143.818Zm2.01,4.542c-.339-1.48.35-2.281,1.259-2.489a1.834,1.834,0,0,1,1.739.6,4.218,4.218,0,0,1,1.156,2.18l.205.9-1.276.292C1112.818,1150.139,1111.394,1149.907,1111.04,1148.359Zm-5.49-.294c-.467-1.627-2.134-1.479-2.977-2.367l.042,1.1c1.907-.074,2.9.28,2.97,2.187l.086,2.255-1.141.045c-1.7.065-2.425.023-3.449-.886l.042,1.113,5.624-.215-.377-9.829-5.54.213-.242,2.073c.447-1.425,1.15-2,2.362-2.043l2.353-.09Zm-10.421,2.664c-3.129.388-4.106-3.14-4.106-3.14l-.216,1.433a4.152,4.152,0,0,0,4.335,1.807,4.978,4.978,0,0,0,4.361-5.486,4.9,4.9,0,0,0-5.475-4.345,4.789,4.789,0,0,0-2.717,1.211l-.263,1.75a3.657,3.657,0,0,1,3-2.888c2.437-.282,4.094,2.193,4.355,4.388C1098.609,1147.632,1097.581,1150.435,1095.128,1150.729Zm-11.549-2.886a4.967,4.967,0,0,0,5.6-4.2,4.923,4.923,0,1,0-5.6,4.2Zm.031-.108c-2.468-.323-3.394-3.126-3.078-5.323.33-2.162,2.033-4.631,4.465-4.262,2.412.347,3.346,3.166,3.034,5.321C1087.72,1145.655,1086.029,1148.1,1083.61,1147.734Zm-15.461-9.2c2.34,1.8,5.571-.931,7.737-3.308l-1.965,7.755.916.705,6-7.791-.066-.05-5.85,7.592.252-.966,2.309-9.16-.11-.085c-1.548,2.008-5.261,6.463-8.182,5.689l5.8-7.526-.838-.646Zm-.3-5.094c.981-1.38-.175-2.591-.008-3.8l-.833.72c1.247,1.444,1.589,2.437.145,3.684l-1.708,1.475-.747-.865c-1.11-1.286-1.531-1.88-1.461-3.249l-.843.729,3.678,4.26,7.445-6.427-3.624-4.2-1.77,1.106c1.393-.541,2.278-.348,3.069.571l1.539,1.782Zm-3.668-18.153-.475-1.069-7.3,7.8.04.089a44.2,44.2,0,0,0,7.019.22,9.921,9.921,0,0,0,2.33-.381c.6-.191.921-.5.921-.912a.344.344,0,0,0,0-.243c-.229-.585-.8-.592-1.54-.551a3.633,3.633,0,0,1-3.807-1.982Zm-2.882,3.049a3.734,3.734,0,0,0,3.9,2.017c.675-.056,1.211-.05,1.4.476a.829.829,0,0,0,.016.206c.035.351-.321.615-.854.821a9.929,9.929,0,0,1-2.306.37,47.254,47.254,0,0,1-5.678-.084Zm-9.42-16.386c.266,2.941,4.467,3.457,7.682,3.431l-7.026,3.825.1,1.151,9.8-.885-.007-.084-9.547.863.881-.471,8.291-4.526-.012-.138c-2.525.227-8.317.527-9.733-2.142l9.462-.855-.095-1.054Zm.758-7.093a4.968,4.968,0,0,0,5.419,4.437,4.924,4.924,0,1,0-5.419-4.437Zm.113,0c-.276-2.473,2.222-4.043,4.432-4.263,2.177-.2,4.982.866,5.206,3.316.241,2.424-2.274,4.005-4.439,4.218C1055.754,1098.355,1052.976,1097.3,1052.75,1094.862Zm12.118-8.429a4.918,4.918,0,0,0-9.015-3.932l-1.269,2.912,9.015,3.932Zm-9.76-1.977.835-1.916c.853-1.954,3.53-2.656,5.968-1.592s3.708,3.486,2.856,5.44l-.836,1.916Zm7.528-7.945c1.579.611,2.469-.807,3.684-.943l-.9-.631c-1.093,1.565-1.972,2.141-3.536,1.048l-1.85-1.293.654-.936c.974-1.393,1.447-1.947,2.79-2.216l-.914-.639-3.224,4.613,8.062,5.635,3.175-4.545-1.506-1.443c.866,1.217.9,2.122.2,3.115l-1.349,1.93Zm11.437-6.567c.638,1.356.524,2.243-.32,3.095l-1.656,1.673-6.91-6.842-.784.791,6.988,6.921,3.912-3.95Zm11.242-4.833,1.029-.557-8.349-6.662-.086.047a44.246,44.246,0,0,0,.332,7.013,9.945,9.945,0,0,0,.562,2.295c.237.584.572.878.982.846a.346.346,0,0,0,.243-.02c.564-.274.526-.84.427-1.579a3.632,3.632,0,0,1,1.677-3.951Zm-3.265-2.635a3.735,3.735,0,0,0-1.705,4.046c.109.67.145,1.2-.364,1.433a.858.858,0,0,0-.205.031c-.347.061-.639-.272-.886-.787a9.941,9.941,0,0,1-.548-2.269,47.019,47.019,0,0,1-.362-5.667Zm6.04,1.6,1.012-.357-3.234-9.184c1.4-.478,2.267-.7,3.451-.182l-.361-1.025-7.266,2.559.361,1.024c.576-1.132,1.4-1.512,2.8-2.021Zm17.247-12.336c-2.953.048-3.778,4.2-3.99,7.408l-3.3-7.29-1.156.019.159,9.834h.084l-.156-9.583.406.913,3.9,8.6.139,0c-.041-2.536.088-8.334,2.855-9.549l.154,9.5,1.059-.017Zm7.041,1.3a4.968,4.968,0,0,0-4.838,5.064,4.923,4.923,0,1,0,4.838-5.064Zm-.012.113c2.485-.087,3.861,2.526,3.911,4.744.029,2.187-1.245,4.9-3.7,4.937-2.436.056-3.82-2.573-3.867-4.749C1108.651,1055.879,1109.919,1053.19,1112.365,1053.152Zm7.474,12.727a4.918,4.918,0,0,0,4.609-8.688l-2.806-1.488-4.608,8.688Zm2.717-9.581,1.847.979c1.882,1,2.378,3.722,1.131,6.073s-3.759,3.43-5.643,2.432l-1.845-.98Zm7.345,8.111c-.729,1.528.619,2.522.661,3.745l.7-.851c-1.477-1.208-1.985-2.127-.776-3.605l1.429-1.746.884.723c1.315,1.077,1.832,1.589,2,2.949l.707-.863-4.355-3.564-6.229,7.611,4.291,3.512,1.554-1.392c-1.279.771-2.184.732-3.122-.036l-1.822-1.49Zm5.682,11.9c-1.4.532-2.277.351-3.062-.554l-1.542-1.779,7.345-6.371-.731-.841-7.429,6.445,3.642,4.2Zm5.4,2.352c1.549,2.757-4.651,2.645-2.167,7.066l.1-.055c-.477-.85.207-1.794,1.01-2.869.962-1.275,2.112-2.5,1.157-4.2a1.573,1.573,0,0,0-.965-.752,19.182,19.182,0,0,1,4.4.58,5.893,5.893,0,0,1,2.16,1.2l-1.132-2.016c-.107.891-2.243.446-2.243.446a10.513,10.513,0,0,0-6.524.39l7.02-3.945-.518-.923-8.575,4.818.518.923a10.53,10.53,0,0,1,4.2-1.419A1.607,1.607,0,0,1,1140.986,1078.662Zm7.826,6.585a4.968,4.968,0,0,0-6.843-1.493,4.924,4.924,0,1,0,6.843,1.493Zm-.1.048c1.369,2.077-.146,4.611-2.014,5.81-1.851,1.163-4.832,1.49-6.144-.592-1.315-2.051.208-4.6,2.041-5.774C1144.447,1083.546,1147.4,1083.227,1148.709,1085.3Zm.235,9.6c-1.584.127-2.257,1.649-2.8,3.19-1.225,3.356-2.635,3.721-3.473,2.866-1.613-1.632-.656-4.839,2.677-6.479l-1.93.156c-1.886,1.732-2.184,4.957-.848,6.442a2.151,2.151,0,0,0,1.8.665c1.638-.133,2.313-1.641,2.843-3.206,1.309-3.516,2.827-3.751,3.623-2.725.992,1.2.989,3.749-1.745,5.382l1.458-.118c1.834-1.35,1.493-6.424-1.6-6.173Zm2.349,14.035-9.6-2.119-.225,1.021,9.509,2.1c-.323,1.47-1.665,2.315-3.4,2.79a16.624,16.624,0,0,1-7.189,0l-.225,1.02,9.6,2.119.224-1.021-7.808-1.722a14.973,14.973,0,0,0,5.436-.328c1.752-.44,3.122-1.351,3.449-2.834Zm-4.219,13.384a4.967,4.967,0,0,0-3.9-5.818,4.923,4.923,0,1,0,3.9,5.818Zm-.107-.036c-.452,2.445-3.3,3.223-5.478,2.793-2.141-.444-4.517-2.275-4.02-4.683.471-2.391,3.338-3.174,5.472-2.749C1145.107,1118.066,1147.458,1119.883,1146.967,1122.281Zm-16.461,7.372,3.466,6.985a1.771,1.771,0,0,0,2.483,1c1.076-.563,1.335-1.866.656-3.17l-.931-1.927,3.765,1.245.766-.886-5.2-1.712-1.645-3.3,8.723,2.838.791-.917-10.177-3.284-.081.095,2.267,4.516-4.817-1.562Zm5.5,2.856,1.037,2.037a2.177,2.177,0,0,1-.637,3.02,1.749,1.749,0,0,1-2.394-.981l-2.784-5.644Zm-9.1,6.684-.348-.572-3.31,2.009.348.572Z" transform="translate(186.12 3643.26)" fill-rule="evenodd"/>
    <g id="arrow-left" transform="translate(1274 4739)">
      <line id="Line_2" data-name="Line 2" x1="27.523" transform="translate(0 5.161)" fill="none" stroke="gray" stroke-linecap="round" stroke-linejoin="round" stroke-width="2"/>
      <line id="Line_3" data-name="Line 3" x1="4.587" y1="5.161" transform="translate(22.936)" fill="none" stroke="gray" stroke-linecap="round" stroke-linejoin="round" stroke-width="2"/>
      <line id="Line_4" data-name="Line 4" x1="4.587" y2="5.161" transform="translate(22.936 5.161)" fill="none" stroke="gray" stroke-linecap="round" stroke-linejoin="round" stroke-width="2"/>
    </g>
  </g>
</svg>
