<svg width="100" height="100" viewBox="0 0 100 100" fill="none" xmlns="http://www.w3.org/2000/svg">
<path fill-rule="evenodd" clip-rule="evenodd" d="M59.6088 94.2723C58.5612 94.7549 57.8212 95.6398 58.0997 96.8612C58.4575 98.4237 60.2273 98.6611 62.2634 98.1952L64.6128 97.6581L62.4205 88.0702L59.2019 88.8069C57.1134 89.2983 55.59 90.1332 56.0892 92.3197C56.5305 94.2478 57.8701 94.542 59.6088 94.2723ZM57.1492 92.0779C56.5896 89.6327 58.1132 89.1702 59.3346 88.8905L61.3718 88.4247L63.077 95.8805C62.8832 95.4182 62.6029 94.9972 62.2512 94.6401C61.714 94.1051 61.0331 93.8755 60.3945 94.0215C59.2131 94.2924 57.7052 94.5085 57.1492 92.0779ZM59.1597 96.6194C58.8208 95.1394 59.5095 94.338 60.4189 94.1307C61.0309 93.9904 61.6382 94.2087 62.1576 94.7325C62.6825 95.2129 63.0994 95.9752 63.3132 96.9125L63.5183 97.8086L62.2423 98.1006C60.9384 98.3992 59.514 98.1674 59.1597 96.6194ZM53.6697 96.3252C53.2028 94.698 51.5355 94.8462 50.693 93.958L50.7354 95.058C52.6422 94.9844 53.6318 95.3378 53.7054 97.2446L53.7913 99.4991L52.65 99.5437C50.9515 99.6084 50.2249 99.5671 49.2007 98.6577L49.243 99.7711L54.8667 99.556L54.49 89.7274L48.95 89.9403L48.7081 92.0133C49.155 90.5879 49.8583 90.0172 51.0697 89.9705L53.4224 89.8801L53.6697 96.3252ZM43.2483 98.9888C40.1189 99.3766 39.1426 95.8492 39.1426 95.8492L38.9264 97.2825C38.9264 97.2825 40.0631 99.4668 43.2617 99.089C45.9688 98.7915 47.9034 96.3218 47.6226 93.6025C47.2715 90.8732 44.8933 88.896 42.1472 89.2572C41.1359 89.3623 40.1842 89.7866 39.4301 90.4686L39.1671 92.2183C39.5839 90.7595 40.5736 89.5146 42.165 89.3307C44.6024 89.0487 46.2585 91.5239 46.5204 93.7184C46.7288 95.8916 45.7012 98.6946 43.2483 98.9888ZM31.699 96.1023C34.4042 96.4819 36.9082 94.6058 37.3037 91.903C37.6848 89.158 35.8281 86.656 33.13 86.3093C30.4218 85.9126 27.8975 87.8206 27.5565 90.5065C27.1464 93.2091 29.0131 95.7612 31.699 96.1023ZM31.7302 95.9941C29.2627 95.6709 28.3367 92.868 28.652 90.6714C28.9819 88.5093 30.6848 86.0408 33.1166 86.4097C35.5283 86.7562 36.4623 89.5759 36.1501 91.7302C35.8403 93.9146 34.1486 96.3586 31.7302 95.9941ZM16.269 86.7942C18.6095 88.5963 21.8403 85.8635 24.0057 83.4865L22.041 91.241L22.957 91.9464L28.9596 84.155L28.8938 84.105L23.0439 91.6968L23.2959 90.7305L25.605 81.5706L25.4948 81.486C23.9467 83.4941 20.2333 87.9487 17.3123 87.1753L23.1108 79.6493L22.2727 79.0028L16.269 86.7942ZM15.9692 81.7C16.9501 80.3202 15.7943 79.1088 15.9615 77.8962L15.129 78.6162C16.3761 80.0605 16.7183 81.0535 15.2739 82.3007L13.5654 83.7761L12.8187 82.9114C11.7087 81.6252 11.2874 81.0312 11.3577 79.6626L10.5151 80.3915L14.1929 84.651L21.6376 78.2239L18.0133 74.0267L16.2435 75.1323C17.6366 74.5918 18.5215 74.7845 19.3127 75.7029L20.8518 77.485L15.9692 81.7ZM12.3015 63.5474L11.8268 62.4785L4.53027 70.2788L4.57043 70.3679C6.64221 70.6053 9.46851 70.7212 11.5894 70.5875C12.3787 70.5537 13.1609 70.4257 13.9198 70.2063C14.5205 70.0157 14.8403 69.7059 14.8403 69.2947C14.8695 69.2163 14.8691 69.1299 14.8392 69.0518C14.6107 68.4667 14.0435 68.46 13.2991 68.5012C12.189 68.5067 10.6566 68.5925 9.49194 66.5197L12.3015 63.5474ZM9.41956 66.5966C10.6143 68.7029 12.1779 68.6182 13.3191 68.6138C13.9945 68.558 14.5305 68.5636 14.7189 69.0896C14.7155 69.1587 14.7207 69.228 14.7345 69.2958C14.769 69.6469 14.4135 69.911 13.8807 70.1172C13.1294 70.3308 12.3555 70.455 11.575 70.4872C9.86084 70.6086 7.74451 70.5117 5.89673 70.4036L9.41956 66.5966ZM0 50.2104C0.266357 53.1515 4.4668 53.6675 7.68213 53.6418L0.656372 57.4668L0.76001 58.618L10.5552 57.7332L10.5485 57.6495L1.00195 58.5122L1.88342 58.0408L10.1741 53.5149L10.1617 53.3767C7.63635 53.604 1.84448 53.9038 0.429077 51.2346L9.89099 50.3799L9.79626 49.3256L0 50.2104ZM0.757812 43.1179C1.03711 45.835 3.45764 47.8169 6.17639 47.5547C8.93359 47.2682 10.9174 44.8665 10.6086 42.1628C10.3457 39.438 7.88818 37.4452 5.19897 37.7561C2.47742 38.0059 0.446899 40.4287 0.757812 43.1179ZM0.870361 43.1223C0.593994 40.6494 3.09265 39.0791 5.30273 38.8595C7.47925 38.6622 10.2844 39.7255 10.5084 42.175C10.7491 44.599 8.23486 46.1804 6.06946 46.3933C3.8739 46.6151 1.09546 45.5575 0.870361 43.1223ZM12.988 34.6936C14.0574 32.2152 12.9187 29.339 10.4426 28.2642C7.92725 27.1676 5.03625 28.3232 3.97314 30.7617L2.70374 33.6738L11.7188 37.6057L12.988 34.6936ZM3.22754 32.7166L4.06226 30.8008C4.91479 28.847 7.5918 28.145 10.0303 29.2092C12.4688 30.2736 13.7382 32.6953 12.8867 34.649L12.0508 36.5648L3.22754 32.7166ZM10.7559 24.7715C12.335 25.3822 13.2244 23.9646 14.4403 23.8286L13.5387 23.1978C12.4453 24.7625 11.5671 25.3386 10.0024 24.2454L8.15234 22.9526L8.80664 22.0165C9.78064 20.6233 10.2532 20.0695 11.5962 19.8009L10.6823 19.1622L7.45813 23.7751L15.5201 29.4099L18.6953 24.865L17.1897 23.4219C18.0557 24.6388 18.0857 25.5438 17.3914 26.5367L16.0428 28.467L10.7559 24.7715ZM22.1925 18.205C22.8301 19.5613 22.7163 20.4484 21.8727 21.2998L20.2166 22.9727L13.3069 16.1309L12.5233 16.9221L19.5111 23.843L23.4229 19.8933L22.1925 18.205ZM33.4342 13.3715L34.4629 12.8142L26.1144 6.15186L26.0286 6.19873C25.955 8.28271 26.0609 11.1091 26.3606 13.2122C26.4561 13.9966 26.6445 14.767 26.9224 15.5068C27.1598 16.0908 27.4941 16.385 27.9042 16.3527C27.985 16.3757 28.0713 16.3685 28.1472 16.3326C28.7111 16.0585 28.6732 15.4923 28.574 14.7534C28.4816 13.6467 28.2754 12.1266 30.2513 10.8026L33.4342 13.3715ZM30.1688 10.7368C28.1627 12.0931 28.3701 13.6445 28.4636 14.7823C28.5729 15.4521 28.6085 15.9872 28.0992 16.2156C28.0299 16.2177 27.9611 16.2281 27.8942 16.2468C27.5476 16.3081 27.2556 15.9749 27.0082 15.46C26.7369 14.7278 26.5529 13.9662 26.4598 13.1909C26.2035 11.4913 26.1344 9.37378 26.0977 7.5238L30.1688 10.7368ZM36.2092 12.3361L37.2212 11.9795L33.9871 2.79504C35.3845 2.31702 36.2539 2.09961 37.4385 2.6134L37.0774 1.58813L29.811 4.14697L30.1721 5.17114C30.7483 4.03882 31.5742 3.65881 32.9751 3.15063L36.2092 12.3361ZM53.4558 0C50.5024 0.0479736 49.6777 4.19934 49.4659 7.40796L46.1704 0.118164L45.0148 0.137085L45.1741 9.97119L45.2577 9.97009L45.1017 0.386719L45.5073 1.29944L49.408 9.9032L49.5474 9.901C49.5061 7.36548 49.6354 1.56689 52.4026 0.352173L52.5564 9.85193L53.6151 9.83521L53.4558 0ZM60.4971 1.29944C57.7664 1.37024 55.6051 3.63257 55.6591 6.36365C55.7338 9.13306 57.9761 11.2963 60.6954 11.1948C63.4325 11.1403 65.608 8.84338 65.5032 6.13855C65.4631 3.40479 63.203 1.1958 60.4971 1.29944ZM60.4847 1.41199C62.9701 1.32507 64.3453 3.9375 64.3955 6.15637C64.4244 8.34302 63.1506 11.0579 60.692 11.0935C58.2559 11.1492 56.8716 8.52014 56.8248 6.34473C56.7714 4.13916 58.0385 1.44995 60.4847 1.41199ZM67.9584 14.1394C70.3481 15.3947 73.303 14.4789 74.564 12.092C75.85 9.66809 74.9183 6.698 72.5679 5.45093L69.7616 3.96313L65.1533 12.6515L67.9584 14.1394ZM70.6755 4.55823L72.5222 5.53674C74.4045 6.53638 74.9005 9.25903 73.6533 11.6095C72.4062 13.96 69.8943 15.0398 68.0107 14.0413L66.1653 13.0616L70.6755 4.55823ZM78.021 12.6693C77.2921 14.1973 78.6395 15.1914 78.6819 16.4139L79.3795 15.5625C77.9028 14.3545 77.3947 13.4351 78.6039 11.9572L80.0327 10.2108L80.9164 10.9341C82.2316 12.0107 82.7487 12.5233 82.9136 13.8831L83.6201 13.0204L79.2648 9.4563L73.036 17.067L77.3267 20.5787L78.8802 19.1868C77.6008 19.958 76.6959 19.9189 75.7587 19.1511L73.9365 17.6611L78.021 12.6693ZM83.7026 24.5708C82.3018 25.1024 81.4258 24.9219 80.6411 24.017L79.0988 22.2383L86.4442 15.8668L85.7131 15.0254L78.2841 21.4703L81.9261 25.6686L83.7026 24.5708ZM89.1056 26.9224C90.6547 29.6796 84.4548 29.567 86.9391 33.9882L87.036 33.9336C86.559 33.0833 87.2433 32.1393 88.0458 31.0649C89.0076 29.7899 90.1577 28.5674 89.2025 26.8678C88.9956 26.4969 88.6475 26.2257 88.2374 26.1155C89.6572 26.0842 91.0247 26.3551 92.6373 26.6951C92.6586 26.7318 94.1497 27.1396 94.7972 27.8942L93.6649 25.8782C93.5579 26.7697 91.4215 26.3239 91.4215 26.3239C89.168 25.896 87.3079 25.7422 84.8973 26.714L91.9174 22.7687L91.3992 21.8459L82.8243 26.6638L83.3427 27.5865C84.9341 26.6927 86.2626 26.2982 87.5475 26.1678C87.8518 26.14 88.682 26.1689 89.1056 26.9224ZM96.9314 33.5078C95.449 31.2133 92.3921 30.5461 90.0885 32.0144C87.7627 33.5211 87.0851 36.5615 88.5874 38.8306C90.0585 41.1385 93.1522 41.7994 95.408 40.3016C97.7194 38.8439 98.4292 35.7634 96.9314 33.5078ZM96.8289 33.5557C98.1975 35.6331 96.6829 38.1663 94.8151 39.3655C92.9639 40.5289 89.9827 40.8555 88.6709 38.7737C87.3558 36.723 88.8794 34.1731 90.7115 32.9996C92.5671 31.806 95.5227 31.4873 96.8289 33.5557ZM97.064 43.1581C95.4803 43.2852 94.8073 44.8075 94.2611 46.3477C93.0364 49.7034 91.6265 50.0688 90.7885 49.2141C89.1758 47.5825 90.132 44.375 93.4653 42.7356L91.5352 42.8917C89.6494 44.6235 89.3507 47.8489 90.687 49.3334C91.1495 49.8256 91.8165 50.072 92.488 49.9987C94.1262 49.8661 94.8005 48.3582 95.3311 46.7924C96.6405 43.2761 98.1584 43.041 98.9542 44.0675C99.946 45.2722 99.9427 47.8165 97.209 49.4492L98.6666 49.3311C100.501 47.9814 100.16 42.9073 97.064 43.1581ZM99.4133 57.1926L89.8088 55.074L89.5836 56.0948L99.0924 58.1912C98.7692 59.6611 97.4274 60.506 95.6965 60.9807C93.501 61.5525 90.6692 61.4556 88.5071 60.9785L88.282 61.9983L97.8865 64.1168L98.1105 63.0959L90.3025 61.3741C92.1024 61.5569 94.0784 61.5223 95.7389 61.0465C97.4908 60.6063 98.8606 59.6958 99.1882 58.2124L99.4133 57.1926ZM95.194 70.5763C95.7147 67.8948 93.9727 65.2959 91.2944 64.7588C88.574 64.2328 85.9784 65.9557 85.4891 68.6327C84.9508 71.3164 86.7228 73.9365 89.3876 74.4191C92.0656 74.9696 94.7114 73.2411 95.194 70.5763ZM95.0869 70.5406C94.6345 72.9858 91.787 73.7638 89.6094 73.3336C87.4684 72.89 85.0923 71.059 85.5894 68.6505C86.0608 66.26 88.9272 65.4766 91.0615 65.9011C93.2269 66.3257 95.5784 68.1434 95.0869 70.5406ZM78.6262 77.913L82.0922 84.8984C82.5703 85.9015 83.5577 86.4409 84.5752 85.9026C85.6508 85.3398 85.9104 84.037 85.2317 82.733L84.301 80.8062L88.0658 82.051L88.8314 81.165L83.629 79.4531L81.9841 76.1554L90.707 78.9929L91.4983 78.0757L81.3209 74.7913L81.2396 74.886L83.5065 79.4019L78.6897 77.8394L78.6262 77.913ZM84.1306 80.7693L85.1681 82.8066C85.6919 83.8843 85.6597 85.2004 84.5306 85.8268C83.551 86.3428 82.6105 85.77 82.1367 84.8461L79.3528 79.2024L84.1306 80.7693ZM75.0309 87.4529L74.6831 86.8811L71.3732 88.8905L71.7209 89.4623L75.0309 87.4529Z" fill="black"/>
<line x1="62.5234" y1="50.1606" x2="37" y2="50.1606" stroke="#808080" stroke-width="2" stroke-linecap="round" stroke-linejoin="round"/>
<line x1="62.1117" y1="49.0776" x2="58.8532" y2="45.4118" stroke="#808080" stroke-width="2" stroke-linecap="round" stroke-linejoin="round"/>
<line x1="63.6065" y1="50.5724" x2="60.348" y2="54.2382" stroke="#808080" stroke-width="2" stroke-linecap="round" stroke-linejoin="round"/>
</svg>
